<svg width="328" height="63" viewBox="0 0 328 63" fill="none" xmlns="http://www.w3.org/2000/svg">
<mask id="path-1-outside-1" maskUnits="userSpaceOnUse" x="0" y="0" width="328" height="63" fill="black">
<rect fill="white" width="328" height="63"/>
<path d="M20.0898 51.7305C19.832 53.5586 19.457 55.1172 18.9648 56.4062C18.4727 57.6719 17.875 58.7148 17.1719 59.5352C16.4688 60.332 15.6602 60.9062 14.7461 61.2578C13.8555 61.6328 12.8711 61.8203 11.793 61.8203C10.2695 61.8203 8.83984 61.375 7.50391 60.4844C6.19141 59.5938 5.05469 58.2695 4.09375 56.5117C3.13281 54.7539 2.37109 52.5742 1.80859 49.9727C1.26953 47.3711 1 44.3594 1 40.9375C1 37.3516 1.33984 33.8711 2.01953 30.4961C2.72266 27.1211 3.70703 23.957 4.97266 21.0039C6.26172 18.0508 7.79688 15.3555 9.57812 12.918C11.3828 10.457 13.3867 8.35938 15.5898 6.625C17.8164 4.86719 20.2188 3.50781 22.7969 2.54688C25.375 1.5625 28.0703 1.07031 30.8828 1.07031C33.2969 1.07031 35.5 1.43359 37.4922 2.16016C39.4844 2.88672 41.1953 3.89453 42.625 5.18359C44.0547 6.47266 45.1562 7.99609 45.9297 9.75391C46.7031 11.5117 47.0898 13.4102 47.0898 15.4492C47.0898 17.9102 46.75 20.207 46.0703 22.3398C45.3906 24.4492 44.4414 26.3828 43.2227 28.1406C42.0273 29.8984 40.5977 31.4688 38.9336 32.8516C37.2695 34.2344 35.4531 35.4062 33.4844 36.3672C31.5391 37.3281 29.4766 38.0781 27.2969 38.6172C25.1406 39.1328 22.9492 39.4258 20.7227 39.4961C20.6523 42.4258 20.5703 44.8984 20.4766 46.9141C20.4062 48.9062 20.2773 50.5117 20.0898 51.7305ZM13.9727 37C14.0898 37.0469 14.2305 37.0938 14.3945 37.1406C14.5352 37.1875 14.6992 37.2344 14.8867 37.2812C15.0977 37.3281 15.3438 37.375 15.625 37.4219C15.5781 34.4922 15.5195 31.8086 15.4492 29.3711C15.4023 26.9102 15.3438 24.7656 15.2734 22.9375C15.1797 20.8047 15.0977 18.8828 15.0273 17.1719C15.1914 17.0312 15.3789 16.9141 15.5898 16.8203C15.7773 16.7266 16 16.6445 16.2578 16.5742C16.5156 16.5039 16.832 16.4688 17.207 16.4688C18.2852 16.4688 19.1523 16.668 19.8086 17.0664C20.4648 17.4414 20.793 18.0859 20.793 19C20.793 22.8672 20.793 26.3359 20.793 29.4062C20.793 32.4766 20.7695 35.2422 20.7227 37.7031C23.793 37.7031 26.5703 37.1172 29.0547 35.9453C31.5625 34.7734 33.6953 33.2148 35.4531 31.2695C37.2109 29.3008 38.5703 27.0391 39.5312 24.4844C40.4922 21.9297 40.9727 19.2578 40.9727 16.4688C40.9727 14.6875 40.7266 13 40.2344 11.4062C39.7656 9.78906 39.0391 8.38281 38.0547 7.1875C37.0703 5.96875 35.8281 5.00781 34.3281 4.30469C32.8516 3.57812 31.1055 3.21484 29.0898 3.21484C27.0508 3.21484 25.0352 3.60156 23.043 4.375C21.0742 5.14844 19.1875 6.30859 17.3828 7.85547C15.6016 9.40234 13.9492 11.3242 12.4258 13.6211C10.9258 15.918 9.61328 18.6016 8.48828 21.6719C7.38672 24.7422 6.51953 28.1875 5.88672 32.0078C5.27734 35.8047 4.97266 39.9883 4.97266 44.5586C4.97266 46.5273 5.06641 48.4492 5.25391 50.3242C5.46484 52.1758 5.80469 53.8281 6.27344 55.2812C6.74219 56.7109 7.36328 57.8594 8.13672 58.7266C8.93359 59.5938 9.91797 60.0273 11.0898 60.0273C11.7227 60.0273 12.3203 59.8984 12.8828 59.6406C13.4453 59.3828 13.9375 58.8555 14.3594 58.0586C14.7812 57.2383 15.1211 56.0781 15.3789 54.5781C15.6367 53.0547 15.7656 51.0273 15.7656 48.4961C15.7656 46.9023 15.7539 45.332 15.7305 43.7852C15.707 42.2148 15.6953 40.6914 15.6953 39.2148C15.3438 39.168 15.0391 39.1094 14.7812 39.0391C14.5234 38.9688 14.3008 38.9102 14.1133 38.8633C13.9023 38.793 13.7266 38.7227 13.5859 38.6523L13.9727 37Z"/>
<path d="M73.668 45.2617L73.2812 46C72.4844 47.5938 71.418 48.8711 70.082 49.832C68.7695 50.7695 67.3398 51.3789 65.793 51.6602C65.3711 52.8555 64.8203 53.9688 64.1406 55C63.4844 56.0078 62.7227 56.8867 61.8555 57.6367C61.0117 58.3867 60.0508 58.9727 58.9727 59.3945C57.918 59.8164 56.7695 60.0273 55.5273 60.0273C53.7227 60.0273 52.0938 59.6523 50.6406 58.9023C49.2109 58.1289 47.9922 57.0977 46.9844 55.8086C45.9766 54.4961 45.2031 52.9727 44.6641 51.2383C44.125 49.4805 43.8555 47.6055 43.8555 45.6133C43.8555 43.8789 44.0547 42.3086 44.4531 40.9023C44.8516 39.4727 45.3555 38.207 45.9648 37.1055C46.5742 35.9805 47.2539 35.0078 48.0039 34.1875C48.7539 33.3438 49.4922 32.6523 50.2188 32.1133C50.9453 31.5742 51.6016 31.1758 52.1875 30.918C52.7969 30.6367 53.2539 30.4961 53.5586 30.4961L54.0156 31.7266C53.0547 32.4297 52.1992 33.4141 51.4492 34.6797C50.793 35.7578 50.1953 37.1875 49.6562 38.9688C49.1406 40.75 48.8828 42.9648 48.8828 45.6133C48.8828 47.2305 49.0352 48.8008 49.3398 50.3242C49.6445 51.8477 50.0898 53.1953 50.6758 54.3672C51.2617 55.5391 51.9766 56.4766 52.8203 57.1797C53.6875 57.8828 54.6602 58.2344 55.7383 58.2344C57.2148 58.2344 58.4336 57.6484 59.3945 56.4766C60.3789 55.2812 61.1055 53.6523 61.5742 51.5898C60.3555 51.332 59.1953 50.8516 58.0938 50.1484C56.9922 49.4453 56.0195 48.5781 55.1758 47.5469C54.332 46.4922 53.6523 45.2852 53.1367 43.9258C52.6445 42.5664 52.3984 41.0898 52.3984 39.4961C52.3984 38.1836 52.5625 37.0352 52.8906 36.0508C53.2422 35.043 53.6992 34.2109 54.2617 33.5547C54.8242 32.875 55.4688 32.3711 56.1953 32.043C56.9453 31.6914 57.7305 31.5156 58.5508 31.5156C59.5117 31.5156 60.4961 31.7969 61.5039 32.3594C62.5117 32.8984 63.4258 33.7188 64.2461 34.8203C65.0664 35.8984 65.7344 37.2578 66.25 38.8984C66.7656 40.5391 67.0234 42.4492 67.0234 44.6289C67.0234 45.4492 66.9766 46.2578 66.8828 47.0547C66.7891 47.8516 66.6484 48.625 66.4609 49.375C67.5859 49.0469 68.6055 48.5195 69.5195 47.793C70.457 47.0664 71.2305 46.1055 71.8398 44.9102L72.2266 44.1719L73.668 45.2617ZM54.7188 39.2148C54.7188 40.5977 54.9062 41.875 55.2812 43.0469C55.6797 44.1953 56.207 45.2148 56.8633 46.1055C57.5195 46.9727 58.2812 47.6992 59.1484 48.2852C60.0156 48.8711 60.9414 49.2812 61.9258 49.5156C62.043 48.8594 62.1133 48.1797 62.1367 47.4766C62.1836 46.75 62.207 46.0117 62.207 45.2617C62.207 43.5977 62.0781 42.0977 61.8203 40.7617C61.5625 39.4023 61.2227 38.2539 60.8008 37.3164C60.3789 36.3555 59.8867 35.6172 59.3242 35.1016C58.7617 34.5859 58.1875 34.3281 57.6016 34.3281C56.8047 34.3281 56.125 34.7617 55.5625 35.6289C55 36.4727 54.7188 37.668 54.7188 39.2148Z"/>
<path d="M71.9102 44.9102L72.2617 44.1719C72.6133 43.4688 72.9297 42.7422 73.2109 41.9922C73.5156 41.2422 73.7734 40.5391 73.9844 39.8828C74.1953 39.2031 74.3594 38.6055 74.4766 38.0898C74.5938 37.5508 74.6758 37.1406 74.7227 36.8594C74.1133 36.7891 73.5273 36.6367 72.9648 36.4023C72.4023 36.168 71.9102 35.8516 71.4883 35.4531C71.0664 35.0547 70.7383 34.5859 70.5039 34.0469C70.2461 33.5078 70.1172 32.8984 70.1172 32.2188C70.1172 31.6797 70.2109 31.1992 70.3984 30.7773C70.5859 30.3555 70.8438 30.0039 71.1719 29.7227C71.4766 29.4414 71.8281 29.2305 72.2266 29.0898C72.6016 28.9258 73 28.8438 73.4219 28.8438C73.9844 28.8438 74.4766 28.9609 74.8984 29.1953C75.3203 29.4297 75.6719 29.7461 75.9531 30.1445C76.2344 30.5195 76.4453 30.9648 76.5859 31.4805C76.7266 31.9727 76.7969 32.4883 76.7969 33.0273C77.4531 33.0273 78.1562 32.9336 78.9062 32.7461C79.6797 32.5586 80.4531 32.3594 81.2266 32.1484C82 31.9141 82.7617 31.7031 83.5117 31.5156C84.2617 31.3281 84.9531 31.2344 85.5859 31.2344C86.125 31.2344 86.5586 31.3516 86.8867 31.5859C87.2148 31.7969 87.3789 32.1602 87.3789 32.6758C87.3789 33.0508 87.2617 33.6719 87.0273 34.5391C86.8164 35.4062 86.5469 36.4141 86.2188 37.5625C85.8906 38.7109 85.5273 39.9648 85.1289 41.3242C84.7539 42.6602 84.4023 44.0195 84.0742 45.4023C83.7461 46.7617 83.4648 48.0859 83.2305 49.375C83.0195 50.6641 82.9141 51.8125 82.9141 52.8203C82.9141 54.0859 83.0547 54.9414 83.3359 55.3867C83.6172 55.832 84.1211 56.0547 84.8477 56.0547C85.1523 56.0547 85.5273 55.9258 85.9727 55.668C86.4414 55.3867 87.0039 54.8594 87.6602 54.0859C88.3164 53.2891 89.0898 52.1641 89.9805 50.7109C90.8945 49.2344 91.9492 47.3008 93.1445 44.9102L93.4961 44.1719L94.9375 45.2617L94.5859 46C93.1797 48.8125 91.9258 51.1211 90.8242 52.9258C89.7227 54.7305 88.7031 56.1602 87.7656 57.2148C86.8516 58.2695 85.9844 59.0078 85.1641 59.4297C84.3438 59.8281 83.5234 60.0273 82.7031 60.0273C81.3203 60.0273 80.1953 59.5 79.3281 58.4453C78.4609 57.3906 78.0273 55.7617 78.0273 53.5586C78.0273 52.3633 78.1914 51.1211 78.5195 49.832C78.8477 48.543 79.2578 47.2656 79.75 46C80.2422 44.7109 80.793 43.4453 81.4023 42.2031C82.0117 40.9609 82.5859 39.7891 83.125 38.6875C83.6875 37.5625 84.1914 36.5195 84.6367 35.5586C85.082 34.5977 85.3984 33.7539 85.5859 33.0273L85.375 32.8164C85 32.8164 84.4961 33.0156 83.8633 33.4141C83.2305 33.8125 82.5156 34.2695 81.7188 34.7852C80.9453 35.2773 80.1133 35.7461 79.2227 36.1914C78.332 36.6367 77.4297 36.9062 76.5156 37C76.4688 37.3281 76.3633 37.8086 76.1992 38.4414C76.0586 39.0742 75.8594 39.7773 75.6016 40.5508C75.3438 41.3242 75.0508 42.1211 74.7227 42.9414C74.3945 43.7617 74.0547 44.5352 73.7031 45.2617L73.3516 46L71.9102 44.9102ZM73.6328 30.8125C73.4219 30.8125 73.2461 30.8828 73.1055 31.0234C72.9648 31.1641 72.8945 31.3281 72.8945 31.5156C72.8945 31.7969 72.9648 32.043 73.1055 32.2539C73.2461 32.4414 73.4219 32.6055 73.6328 32.7461C73.8438 32.8633 74.0547 32.957 74.2656 33.0273C74.5 33.0742 74.6992 33.0977 74.8633 33.0977C74.8633 32.4414 74.7578 31.9023 74.5469 31.4805C74.3359 31.0352 74.0312 30.8125 73.6328 30.8125Z"/>
<path d="M93.3555 48.4961C93.3555 46.0117 93.4492 43.5156 93.6367 41.0078C93.8242 38.5 94.0703 35.957 94.375 33.3789H91.1758L91.5625 31.2344H94.6562C94.9844 28.8438 95.3125 26.4531 95.6406 24.0625C95.9922 21.6484 96.3086 19.2344 96.5898 16.8203H100.176C100.129 17.3359 100.059 18.0859 99.9648 19.0703C99.8945 20.0312 99.8008 21.1562 99.6836 22.4453C99.5898 23.7109 99.4961 25.1055 99.4023 26.6289C99.3086 28.1289 99.2148 29.6641 99.1211 31.2344H105.941L105.59 33.3789H98.9805C98.8867 34.7148 98.8047 36.0273 98.7344 37.3164C98.6641 38.6055 98.5938 39.8359 98.5234 41.0078C98.4766 42.1562 98.4414 43.2227 98.418 44.207C98.3945 45.168 98.3828 46 98.3828 46.7031C98.3828 48.4844 98.4297 49.9727 98.5234 51.168C98.6406 52.3633 98.8047 53.3242 99.0156 54.0508C99.25 54.7773 99.5312 55.293 99.8594 55.5977C100.211 55.9023 100.609 56.0547 101.055 56.0547C101.641 56.0547 102.285 55.7617 102.988 55.1758C103.715 54.5664 104.465 53.7578 105.238 52.75C106.012 51.7422 106.797 50.5703 107.594 49.2344C108.391 47.875 109.164 46.4336 109.914 44.9102L110.266 44.1719L111.707 45.2617L111.355 46C110.277 48.1797 109.199 50.1367 108.121 51.8711C107.066 53.6055 106.023 55.082 104.992 56.3008C103.961 57.4961 102.953 58.4219 101.969 59.0781C100.984 59.7109 100.035 60.0273 99.1211 60.0273C98.207 60.0273 97.3867 59.8164 96.6602 59.3945C95.957 58.9727 95.3594 58.3047 94.8672 57.3906C94.375 56.4531 94 55.2578 93.7422 53.8047C93.4844 52.3516 93.3555 50.582 93.3555 48.4961Z"/>
<path d="M131.605 51.3086C131.605 52.6445 131.723 53.7695 131.957 54.6836C132.191 55.5977 132.602 56.0547 133.188 56.0547C133.539 56.0547 133.914 55.8906 134.312 55.5625C134.734 55.2109 135.215 54.6484 135.754 53.875C136.293 53.1016 136.902 52.1055 137.582 50.8867C138.285 49.6445 139.082 48.1328 139.973 46.3516L141.027 44.1719L142.469 45.2617L141.414 47.4414C140.43 49.4102 139.504 51.1797 138.637 52.75C137.793 54.2969 136.984 55.6094 136.211 56.6875C135.438 57.7656 134.676 58.5977 133.926 59.1836C133.199 59.7461 132.473 60.0273 131.746 60.0273C130.973 60.0273 130.316 59.8164 129.777 59.3945C129.262 58.9727 128.828 58.3984 128.477 57.6719C128.125 56.9219 127.855 56.0664 127.668 55.1055C127.48 54.1211 127.352 53.0781 127.281 51.9766C126.719 53.1016 126.098 54.1562 125.418 55.1406C124.738 56.1016 124.023 56.9453 123.273 57.6719C122.547 58.3984 121.785 58.9727 120.988 59.3945C120.191 59.8164 119.395 60.0273 118.598 60.0273C117.426 60.0273 116.289 59.7812 115.188 59.2891C114.086 58.7969 113.102 58.0469 112.234 57.0391C111.391 56.0312 110.711 54.7656 110.195 53.2422C109.68 51.6953 109.422 49.8789 109.422 47.793C109.422 45.3555 109.738 43.1289 110.371 41.1133C111.004 39.0742 111.859 37.3281 112.938 35.875C114.016 34.3984 115.258 33.2617 116.664 32.4648C118.07 31.6445 119.547 31.2344 121.094 31.2344C122.031 31.2344 122.898 31.4453 123.695 31.8672C124.492 32.2891 125.184 32.8047 125.77 33.4141C126.379 34 126.883 34.6328 127.281 35.3125C127.68 35.9688 127.949 36.5312 128.09 37L128.512 33.5898C128.559 33.1445 128.77 32.7695 129.145 32.4648C129.543 32.1602 129.977 31.9258 130.445 31.7617C130.914 31.5742 131.371 31.4453 131.816 31.375C132.262 31.2812 132.578 31.2344 132.766 31.2344C133.047 31.2344 133.234 31.2812 133.328 31.375C133.422 31.4688 133.469 31.6562 133.469 31.9375C133.469 32.2891 133.363 33.0039 133.152 34.082C132.965 35.1367 132.754 36.4961 132.52 38.1602C132.309 39.8008 132.098 41.7344 131.887 43.9609C131.699 46.1875 131.605 48.6367 131.605 51.3086ZM127.738 42.0273C127.738 40.9492 127.574 39.8945 127.246 38.8633C126.918 37.8086 126.473 36.8828 125.91 36.0859C125.348 35.2656 124.691 34.6094 123.941 34.1172C123.215 33.625 122.441 33.3789 121.621 33.3789C120.613 33.3789 119.664 33.6719 118.773 34.2578C117.906 34.8203 117.145 35.6289 116.488 36.6836C115.855 37.7148 115.352 38.9688 114.977 40.4453C114.602 41.8984 114.414 43.5039 114.414 45.2617C114.414 48.7773 114.965 51.4609 116.066 53.3125C117.168 55.1406 118.633 56.0547 120.461 56.0547C121.258 56.0547 122.078 55.7383 122.922 55.1055C123.789 54.4492 124.574 53.5234 125.277 52.3281C126.004 51.1094 126.59 49.6328 127.035 47.8984C127.504 46.1641 127.738 44.207 127.738 42.0273Z"/>
<path d="M164.758 60.0273C163.328 60.0273 162.086 59.7227 161.031 59.1133C160 58.5039 159.145 57.6836 158.465 56.6523C157.785 55.5977 157.281 54.3906 156.953 53.0312C156.625 51.6719 156.461 50.2305 156.461 48.707C156.461 47.3711 156.59 46.0117 156.848 44.6289C157.105 43.2461 157.469 41.9102 157.938 40.6211C158.43 39.3086 159.039 38.0898 159.766 36.9648C160.492 35.8164 161.324 34.8203 162.262 33.9766C163.199 33.1328 164.242 32.4648 165.391 31.9727C166.562 31.4805 167.816 31.2344 169.152 31.2344C170.676 31.2344 171.965 31.5742 173.02 32.2539C174.098 32.9336 174.965 33.7656 175.621 34.75C175.645 30.3203 175.867 26.4062 176.289 23.0078C176.711 19.6094 177.297 16.7617 178.047 14.4648C178.82 12.168 179.734 10.4336 180.789 9.26172C181.844 8.06641 183.004 7.46875 184.27 7.46875C184.715 7.46875 185.113 7.52734 185.465 7.64453C185.84 7.73828 186.145 7.92578 186.379 8.20703C186.637 8.48828 186.824 8.875 186.941 9.36719C187.082 9.83594 187.152 10.4453 187.152 11.1953C187.152 12.7422 187 14.5234 186.695 16.5391C186.391 18.5312 185.957 20.7109 185.395 23.0781C184.832 25.4219 184.141 27.9297 183.32 30.6016C182.523 33.25 181.633 36.0039 180.648 38.8633C180.672 41.3711 180.707 43.5391 180.754 45.3672C180.801 47.1953 180.859 48.7422 180.93 50.0078C181.023 51.2734 181.129 52.3047 181.246 53.1016C181.387 53.8984 181.539 54.5195 181.703 54.9648C181.891 55.3867 182.102 55.6797 182.336 55.8438C182.594 55.9844 182.875 56.0547 183.18 56.0547C183.719 56.0547 184.258 55.8203 184.797 55.3516C185.359 54.8594 185.957 54.1445 186.59 53.207C187.223 52.2461 187.902 51.0742 188.629 49.6914C189.379 48.3086 190.199 46.7148 191.09 44.9102L191.477 44.1719L192.918 45.2617L192.531 46C191.172 48.7422 189.977 51.0156 188.945 52.8203C187.914 54.6016 186.965 56.0312 186.098 57.1094C185.254 58.1875 184.445 58.9492 183.672 59.3945C182.898 59.8164 182.09 60.0273 181.246 60.0273C180.426 60.0273 179.711 59.8281 179.102 59.4297C178.516 59.0078 178.012 58.3633 177.59 57.4961C177.168 56.6055 176.828 55.4805 176.57 54.1211C176.312 52.7383 176.113 51.0859 175.973 49.1641C175.152 50.8047 174.309 52.293 173.441 53.6289C172.574 54.9648 171.672 56.1133 170.734 57.0742C169.82 58.0117 168.859 58.7383 167.852 59.2539C166.844 59.7695 165.812 60.0273 164.758 60.0273ZM169.855 33.0273C168.566 33.0273 167.441 33.4258 166.48 34.2227C165.52 34.9961 164.723 36.0156 164.09 37.2812C163.457 38.5234 162.988 39.9297 162.684 41.5C162.379 43.0703 162.227 44.6406 162.227 46.2109C162.227 47.5 162.32 48.7422 162.508 49.9375C162.719 51.1094 163.023 52.1523 163.422 53.0664C163.844 53.9805 164.348 54.707 164.934 55.2461C165.52 55.7852 166.199 56.0547 166.973 56.0547C167.723 56.0547 168.449 55.8672 169.152 55.4922C169.879 55.1172 170.594 54.5195 171.297 53.6992C172 52.8555 172.715 51.7773 173.441 50.4648C174.168 49.1289 174.941 47.5117 175.762 45.6133C175.715 44.4883 175.68 43.293 175.656 42.0273C175.633 40.7383 175.621 39.3672 175.621 37.9141C175.105 36.3906 174.32 35.1953 173.266 34.3281C172.234 33.4609 171.098 33.0273 169.855 33.0273ZM184.621 12.4961C184.621 11.418 184.492 10.668 184.234 10.2461C184 9.82422 183.719 9.61328 183.391 9.61328C182.828 9.61328 182.371 10.1641 182.02 11.2656C181.668 12.3438 181.387 13.8086 181.176 15.6602C180.988 17.5117 180.848 19.6562 180.754 22.0938C180.684 24.5312 180.648 27.0977 180.648 29.793V33.6602C181.375 31.293 181.996 29.1602 182.512 27.2617C183.027 25.3633 183.438 23.5938 183.742 21.9531C184.047 20.3125 184.27 18.7305 184.41 17.207C184.551 15.6836 184.621 14.1133 184.621 12.4961Z"/>
<path d="M220.973 45.2617L220.586 46C219.789 47.5938 218.723 48.8711 217.387 49.832C216.074 50.7695 214.645 51.3789 213.098 51.6602C212.676 52.8555 212.125 53.9688 211.445 55C210.789 56.0078 210.027 56.8867 209.16 57.6367C208.316 58.3867 207.355 58.9727 206.277 59.3945C205.223 59.8164 204.074 60.0273 202.832 60.0273C201.027 60.0273 199.398 59.6523 197.945 58.9023C196.516 58.1289 195.297 57.0977 194.289 55.8086C193.281 54.4961 192.508 52.9727 191.969 51.2383C191.43 49.4805 191.16 47.6055 191.16 45.6133C191.16 43.8789 191.359 42.3086 191.758 40.9023C192.156 39.4727 192.66 38.207 193.27 37.1055C193.879 35.9805 194.559 35.0078 195.309 34.1875C196.059 33.3438 196.797 32.6523 197.523 32.1133C198.25 31.5742 198.906 31.1758 199.492 30.918C200.102 30.6367 200.559 30.4961 200.863 30.4961L201.32 31.7266C200.359 32.4297 199.504 33.4141 198.754 34.6797C198.098 35.7578 197.5 37.1875 196.961 38.9688C196.445 40.75 196.188 42.9648 196.188 45.6133C196.188 47.2305 196.34 48.8008 196.645 50.3242C196.949 51.8477 197.395 53.1953 197.98 54.3672C198.566 55.5391 199.281 56.4766 200.125 57.1797C200.992 57.8828 201.965 58.2344 203.043 58.2344C204.52 58.2344 205.738 57.6484 206.699 56.4766C207.684 55.2812 208.41 53.6523 208.879 51.5898C207.66 51.332 206.5 50.8516 205.398 50.1484C204.297 49.4453 203.324 48.5781 202.48 47.5469C201.637 46.4922 200.957 45.2852 200.441 43.9258C199.949 42.5664 199.703 41.0898 199.703 39.4961C199.703 38.1836 199.867 37.0352 200.195 36.0508C200.547 35.043 201.004 34.2109 201.566 33.5547C202.129 32.875 202.773 32.3711 203.5 32.043C204.25 31.6914 205.035 31.5156 205.855 31.5156C206.816 31.5156 207.801 31.7969 208.809 32.3594C209.816 32.8984 210.73 33.7188 211.551 34.8203C212.371 35.8984 213.039 37.2578 213.555 38.8984C214.07 40.5391 214.328 42.4492 214.328 44.6289C214.328 45.4492 214.281 46.2578 214.188 47.0547C214.094 47.8516 213.953 48.625 213.766 49.375C214.891 49.0469 215.91 48.5195 216.824 47.793C217.762 47.0664 218.535 46.1055 219.145 44.9102L219.531 44.1719L220.973 45.2617ZM202.023 39.2148C202.023 40.5977 202.211 41.875 202.586 43.0469C202.984 44.1953 203.512 45.2148 204.168 46.1055C204.824 46.9727 205.586 47.6992 206.453 48.2852C207.32 48.8711 208.246 49.2812 209.23 49.5156C209.348 48.8594 209.418 48.1797 209.441 47.4766C209.488 46.75 209.512 46.0117 209.512 45.2617C209.512 43.5977 209.383 42.0977 209.125 40.7617C208.867 39.4023 208.527 38.2539 208.105 37.3164C207.684 36.3555 207.191 35.6172 206.629 35.1016C206.066 34.5859 205.492 34.3281 204.906 34.3281C204.109 34.3281 203.43 34.7617 202.867 35.6289C202.305 36.4727 202.023 37.668 202.023 39.2148Z"/>
<path d="M241.539 33.3086C241.539 37.5273 242.02 41.207 242.98 44.3477C243.941 47.4883 245.207 50.1016 246.777 52.1875C248.371 54.2734 250.176 55.8438 252.191 56.8984C254.23 57.9297 256.316 58.4453 258.449 58.4453C259.973 58.4453 261.473 58.1641 262.949 57.6016C264.449 57.0391 265.902 56.1953 267.309 55.0703C268.715 53.9453 270.062 52.5391 271.352 50.8516C272.664 49.1641 273.883 47.1836 275.008 44.9102L275.395 44.1719L276.836 45.2617L276.449 46C275.16 48.6016 273.73 50.8867 272.16 52.8555C270.613 54.8242 268.961 56.4766 267.203 57.8125C265.445 59.125 263.617 60.1211 261.719 60.8008C259.844 61.4805 257.922 61.8203 255.953 61.8203C254.266 61.8203 252.59 61.5742 250.926 61.082C249.285 60.6133 247.715 59.8984 246.215 58.9375C244.738 57.9531 243.355 56.7227 242.066 55.2461C240.801 53.7695 239.699 52.0469 238.762 50.0781C237.824 48.0859 237.086 45.8477 236.547 43.3633C236.031 40.8555 235.773 38.1016 235.773 35.1016C235.773 31.1406 236.102 27.5547 236.758 24.3438C237.438 21.1094 238.34 18.2383 239.465 15.7305C240.613 13.1992 241.938 11.0078 243.438 9.15625C244.961 7.30469 246.555 5.78125 248.219 4.58594C249.883 3.36719 251.582 2.46484 253.316 1.87891C255.051 1.29297 256.715 1 258.309 1C260.395 1 262.316 1.36328 264.074 2.08984C265.832 2.79297 267.344 3.80078 268.609 5.11328C269.875 6.40234 270.859 7.98438 271.562 9.85938C272.289 11.7109 272.652 13.7734 272.652 16.0469C272.652 18.2266 272.312 20.2773 271.633 22.1992C270.977 24.1211 270.086 25.8086 268.961 27.2617C267.859 28.6914 266.582 29.8281 265.129 30.6719C263.699 31.5156 262.199 31.9375 260.629 31.9375C259.574 31.9375 258.59 31.75 257.676 31.375C256.762 31 255.965 30.4727 255.285 29.793C254.605 29.1133 254.066 28.2812 253.668 27.2969C253.27 26.3125 253.07 25.2227 253.07 24.0273C253.07 22.8789 253.246 21.7773 253.598 20.7227C253.949 19.6445 254.395 18.6602 254.934 17.7695C255.473 16.8555 256.059 16.0586 256.691 15.3789C257.348 14.6758 257.98 14.125 258.59 13.7266L259.539 14.6758C259.047 15.2383 258.578 15.8477 258.133 16.5039C257.711 17.1367 257.336 17.8281 257.008 18.5781C256.68 19.3047 256.422 20.0898 256.234 20.9336C256.047 21.7773 255.953 22.6914 255.953 23.6758C255.953 24.6836 256.07 25.5859 256.305 26.3828C256.562 27.1797 256.902 27.8594 257.324 28.4219C257.77 28.9844 258.273 29.418 258.836 29.7227C259.398 30.0039 259.996 30.1445 260.629 30.1445C261.496 30.1445 262.363 29.8281 263.23 29.1953C264.098 28.5391 264.871 27.5898 265.551 26.3477C266.23 25.082 266.781 23.5352 267.203 21.707C267.625 19.8789 267.836 17.7695 267.836 15.3789C267.836 13.2227 267.59 11.3594 267.098 9.78906C266.629 8.19531 265.973 6.88281 265.129 5.85156C264.285 4.82031 263.289 4.05859 262.141 3.56641C260.992 3.05078 259.762 2.79297 258.449 2.79297C257.512 2.79297 256.445 3.00391 255.25 3.42578C254.055 3.82422 252.824 4.49219 251.559 5.42969C250.316 6.36719 249.098 7.60938 247.902 9.15625C246.707 10.6797 245.629 12.5781 244.668 14.8516C243.73 17.1016 242.969 19.75 242.383 22.7969C241.82 25.8438 241.539 29.3477 241.539 33.3086Z"/>
<path d="M285.766 56.0547C286.586 56.0547 287.418 55.8438 288.262 55.4219C289.129 55 289.996 54.3438 290.863 53.4531C291.754 52.5625 292.668 51.4141 293.605 50.0078C294.543 48.5781 295.504 46.8789 296.488 44.9102L296.84 44.1719L298.281 45.2617L297.93 46C296.664 48.5078 295.398 50.6523 294.133 52.4336C292.891 54.2148 291.66 55.668 290.441 56.793C289.246 57.918 288.062 58.7383 286.891 59.2539C285.719 59.7695 284.594 60.0273 283.516 60.0273C281.992 60.0273 280.633 59.7109 279.438 59.0781C278.242 58.4453 277.234 57.5898 276.414 56.5117C275.594 55.4102 274.973 54.1445 274.551 52.7148C274.105 51.2617 273.883 49.7383 273.883 48.1445C273.883 45.6133 274.234 43.3164 274.938 41.2539C275.617 39.168 276.531 37.3867 277.68 35.9102C278.852 34.4336 280.176 33.2852 281.652 32.4648C283.129 31.6445 284.664 31.2344 286.258 31.2344C287.875 31.2344 289.105 31.6445 289.949 32.4648C290.816 33.2852 291.25 34.3164 291.25 35.5586C291.25 36.7539 290.91 37.8789 290.23 38.9336C289.551 39.9648 288.625 40.9844 287.453 41.9922C286.305 42.9766 284.969 43.9609 283.445 44.9453C281.922 45.9062 280.316 46.9023 278.629 47.9336C278.793 49.1523 279.074 50.2656 279.473 51.2734C279.871 52.2578 280.375 53.1133 280.984 53.8398C281.594 54.543 282.297 55.0938 283.094 55.4922C283.891 55.8672 284.781 56.0547 285.766 56.0547ZM286.855 36.6133C286.855 35.6758 286.598 34.9375 286.082 34.3984C285.59 33.8594 284.98 33.5898 284.254 33.5898C283.645 33.5898 283 33.8125 282.32 34.2578C281.641 34.6797 281.02 35.3711 280.457 36.332C279.895 37.2695 279.426 38.4766 279.051 39.9531C278.676 41.4297 278.488 43.2227 278.488 45.332V46.1406C279.285 45.7188 280.164 45.168 281.125 44.4883C282.109 43.7852 283.023 43.0117 283.867 42.168C284.711 41.3242 285.414 40.4336 285.977 39.4961C286.562 38.5352 286.855 37.5742 286.855 36.6133ZM280.07 25.8906L286.855 18.8594L290.512 22.4453L281.02 27.4023L280.07 25.8906Z"/>
<path d="M311.113 52.3984C310.996 52.5859 310.82 52.9141 310.586 53.3828C310.375 53.8281 310.094 54.332 309.742 54.8945C309.414 55.457 309.016 56.043 308.547 56.6523C308.102 57.2617 307.586 57.8125 307 58.3047C306.414 58.7969 305.758 59.207 305.031 59.5352C304.328 59.8633 303.543 60.0273 302.676 60.0273C301.996 60.0273 301.293 59.8867 300.566 59.6055C299.84 59.3242 299.16 58.8086 298.527 58.0586C297.918 57.3086 297.414 56.2891 297.016 55C296.617 53.6875 296.418 52 296.418 49.9375C296.418 47.9688 296.488 46 296.629 44.0312C296.77 42.0391 296.934 40.2227 297.121 38.582C297.332 36.9414 297.531 35.5703 297.719 34.4688C297.906 33.3672 298.047 32.6992 298.141 32.4648C298.234 32.2539 298.422 32.0664 298.703 31.9023C298.984 31.7383 299.301 31.6094 299.652 31.5156C300.027 31.4219 300.402 31.3516 300.777 31.3047C301.176 31.2578 301.516 31.2344 301.797 31.2344C302.172 31.2344 302.465 31.3281 302.676 31.5156C302.91 31.7031 303.027 32.0195 303.027 32.4648C303.027 32.6758 302.98 33.0977 302.887 33.7305C302.816 34.3398 302.723 35.0898 302.605 35.9805C302.488 36.8711 302.359 37.8555 302.219 38.9336C302.102 40.0117 301.984 41.1133 301.867 42.2383C301.75 43.3398 301.645 44.4414 301.551 45.543C301.48 46.6211 301.445 47.6055 301.445 48.4961C301.445 51.0508 301.715 52.9492 302.254 54.1914C302.816 55.4336 303.73 56.0547 304.996 56.0547C306.074 56.0547 307.164 55.2695 308.266 53.6992C309.391 52.1289 310.363 49.8438 311.184 46.8438C311.301 45.5781 311.406 44.2305 311.5 42.8008C311.617 41.3477 311.723 39.9766 311.816 38.6875C311.91 37.375 311.992 36.2031 312.062 35.1719C312.156 34.1406 312.238 33.4023 312.309 32.957C312.379 32.6289 312.566 32.3594 312.871 32.1484C313.176 31.9141 313.516 31.7383 313.891 31.6211C314.289 31.4805 314.664 31.3867 315.016 31.3398C315.391 31.2695 315.672 31.2344 315.859 31.2344C316.258 31.2344 316.527 31.3281 316.668 31.5156C316.832 31.6797 316.914 31.9492 316.914 32.3242C316.914 32.6523 316.879 33.2852 316.809 34.2227C316.762 35.1367 316.691 36.2148 316.598 37.457C316.527 38.6758 316.445 39.9883 316.352 41.3945C316.258 42.8008 316.164 44.1602 316.07 45.4727C316 46.7617 315.93 47.9336 315.859 48.9883C315.812 50.043 315.789 50.8398 315.789 51.3789C315.789 52.9727 315.871 54.2266 316.035 55.1406C316.223 56.0547 316.621 56.5117 317.23 56.5117C317.676 56.5117 318.156 56.2305 318.672 55.668C319.211 55.082 319.785 54.2734 320.395 53.2422C321.027 52.2109 321.707 50.9922 322.434 49.5859C323.16 48.1562 323.945 46.5977 324.789 44.9102L325.141 44.1719L326.582 45.2617L326.23 46C325.105 48.2266 324.109 50.2188 323.242 51.9766C322.398 53.7109 321.59 55.1758 320.816 56.3711C320.043 57.5664 319.258 58.4805 318.461 59.1133C317.664 59.7227 316.773 60.0273 315.789 60.0273C314.875 60.0273 314.113 59.8516 313.504 59.5C312.918 59.1484 312.449 58.6445 312.098 57.9883C311.746 57.332 311.488 56.5352 311.324 55.5977C311.184 54.6602 311.113 53.5938 311.113 52.3984Z"/>
</mask>
<path d="M20.0898 51.7305C19.832 53.5586 19.457 55.1172 18.9648 56.4062C18.4727 57.6719 17.875 58.7148 17.1719 59.5352C16.4688 60.332 15.6602 60.9062 14.7461 61.2578C13.8555 61.6328 12.8711 61.8203 11.793 61.8203C10.2695 61.8203 8.83984 61.375 7.50391 60.4844C6.19141 59.5938 5.05469 58.2695 4.09375 56.5117C3.13281 54.7539 2.37109 52.5742 1.80859 49.9727C1.26953 47.3711 1 44.3594 1 40.9375C1 37.3516 1.33984 33.8711 2.01953 30.4961C2.72266 27.1211 3.70703 23.957 4.97266 21.0039C6.26172 18.0508 7.79688 15.3555 9.57812 12.918C11.3828 10.457 13.3867 8.35938 15.5898 6.625C17.8164 4.86719 20.2188 3.50781 22.7969 2.54688C25.375 1.5625 28.0703 1.07031 30.8828 1.07031C33.2969 1.07031 35.5 1.43359 37.4922 2.16016C39.4844 2.88672 41.1953 3.89453 42.625 5.18359C44.0547 6.47266 45.1562 7.99609 45.9297 9.75391C46.7031 11.5117 47.0898 13.4102 47.0898 15.4492C47.0898 17.9102 46.75 20.207 46.0703 22.3398C45.3906 24.4492 44.4414 26.3828 43.2227 28.1406C42.0273 29.8984 40.5977 31.4688 38.9336 32.8516C37.2695 34.2344 35.4531 35.4062 33.4844 36.3672C31.5391 37.3281 29.4766 38.0781 27.2969 38.6172C25.1406 39.1328 22.9492 39.4258 20.7227 39.4961C20.6523 42.4258 20.5703 44.8984 20.4766 46.9141C20.4062 48.9062 20.2773 50.5117 20.0898 51.7305ZM13.9727 37C14.0898 37.0469 14.2305 37.0938 14.3945 37.1406C14.5352 37.1875 14.6992 37.2344 14.8867 37.2812C15.0977 37.3281 15.3438 37.375 15.625 37.4219C15.5781 34.4922 15.5195 31.8086 15.4492 29.3711C15.4023 26.9102 15.3438 24.7656 15.2734 22.9375C15.1797 20.8047 15.0977 18.8828 15.0273 17.1719C15.1914 17.0312 15.3789 16.9141 15.5898 16.8203C15.7773 16.7266 16 16.6445 16.2578 16.5742C16.5156 16.5039 16.832 16.4688 17.207 16.4688C18.2852 16.4688 19.1523 16.668 19.8086 17.0664C20.4648 17.4414 20.793 18.0859 20.793 19C20.793 22.8672 20.793 26.3359 20.793 29.4062C20.793 32.4766 20.7695 35.2422 20.7227 37.7031C23.793 37.7031 26.5703 37.1172 29.0547 35.9453C31.5625 34.7734 33.6953 33.2148 35.4531 31.2695C37.2109 29.3008 38.5703 27.0391 39.5312 24.4844C40.4922 21.9297 40.9727 19.2578 40.9727 16.4688C40.9727 14.6875 40.7266 13 40.2344 11.4062C39.7656 9.78906 39.0391 8.38281 38.0547 7.1875C37.0703 5.96875 35.8281 5.00781 34.3281 4.30469C32.8516 3.57812 31.1055 3.21484 29.0898 3.21484C27.0508 3.21484 25.0352 3.60156 23.043 4.375C21.0742 5.14844 19.1875 6.30859 17.3828 7.85547C15.6016 9.40234 13.9492 11.3242 12.4258 13.6211C10.9258 15.918 9.61328 18.6016 8.48828 21.6719C7.38672 24.7422 6.51953 28.1875 5.88672 32.0078C5.27734 35.8047 4.97266 39.9883 4.97266 44.5586C4.97266 46.5273 5.06641 48.4492 5.25391 50.3242C5.46484 52.1758 5.80469 53.8281 6.27344 55.2812C6.74219 56.7109 7.36328 57.8594 8.13672 58.7266C8.93359 59.5938 9.91797 60.0273 11.0898 60.0273C11.7227 60.0273 12.3203 59.8984 12.8828 59.6406C13.4453 59.3828 13.9375 58.8555 14.3594 58.0586C14.7812 57.2383 15.1211 56.0781 15.3789 54.5781C15.6367 53.0547 15.7656 51.0273 15.7656 48.4961C15.7656 46.9023 15.7539 45.332 15.7305 43.7852C15.707 42.2148 15.6953 40.6914 15.6953 39.2148C15.3438 39.168 15.0391 39.1094 14.7812 39.0391C14.5234 38.9688 14.3008 38.9102 14.1133 38.8633C13.9023 38.793 13.7266 38.7227 13.5859 38.6523L13.9727 37Z" fill="#E1C06A"/>
<path d="M73.668 45.2617L73.2812 46C72.4844 47.5938 71.418 48.8711 70.082 49.832C68.7695 50.7695 67.3398 51.3789 65.793 51.6602C65.3711 52.8555 64.8203 53.9688 64.1406 55C63.4844 56.0078 62.7227 56.8867 61.8555 57.6367C61.0117 58.3867 60.0508 58.9727 58.9727 59.3945C57.918 59.8164 56.7695 60.0273 55.5273 60.0273C53.7227 60.0273 52.0938 59.6523 50.6406 58.9023C49.2109 58.1289 47.9922 57.0977 46.9844 55.8086C45.9766 54.4961 45.2031 52.9727 44.6641 51.2383C44.125 49.4805 43.8555 47.6055 43.8555 45.6133C43.8555 43.8789 44.0547 42.3086 44.4531 40.9023C44.8516 39.4727 45.3555 38.207 45.9648 37.1055C46.5742 35.9805 47.2539 35.0078 48.0039 34.1875C48.7539 33.3438 49.4922 32.6523 50.2188 32.1133C50.9453 31.5742 51.6016 31.1758 52.1875 30.918C52.7969 30.6367 53.2539 30.4961 53.5586 30.4961L54.0156 31.7266C53.0547 32.4297 52.1992 33.4141 51.4492 34.6797C50.793 35.7578 50.1953 37.1875 49.6562 38.9688C49.1406 40.75 48.8828 42.9648 48.8828 45.6133C48.8828 47.2305 49.0352 48.8008 49.3398 50.3242C49.6445 51.8477 50.0898 53.1953 50.6758 54.3672C51.2617 55.5391 51.9766 56.4766 52.8203 57.1797C53.6875 57.8828 54.6602 58.2344 55.7383 58.2344C57.2148 58.2344 58.4336 57.6484 59.3945 56.4766C60.3789 55.2812 61.1055 53.6523 61.5742 51.5898C60.3555 51.332 59.1953 50.8516 58.0938 50.1484C56.9922 49.4453 56.0195 48.5781 55.1758 47.5469C54.332 46.4922 53.6523 45.2852 53.1367 43.9258C52.6445 42.5664 52.3984 41.0898 52.3984 39.4961C52.3984 38.1836 52.5625 37.0352 52.8906 36.0508C53.2422 35.043 53.6992 34.2109 54.2617 33.5547C54.8242 32.875 55.4688 32.3711 56.1953 32.043C56.9453 31.6914 57.7305 31.5156 58.5508 31.5156C59.5117 31.5156 60.4961 31.7969 61.5039 32.3594C62.5117 32.8984 63.4258 33.7188 64.2461 34.8203C65.0664 35.8984 65.7344 37.2578 66.25 38.8984C66.7656 40.5391 67.0234 42.4492 67.0234 44.6289C67.0234 45.4492 66.9766 46.2578 66.8828 47.0547C66.7891 47.8516 66.6484 48.625 66.4609 49.375C67.5859 49.0469 68.6055 48.5195 69.5195 47.793C70.457 47.0664 71.2305 46.1055 71.8398 44.9102L72.2266 44.1719L73.668 45.2617ZM54.7188 39.2148C54.7188 40.5977 54.9062 41.875 55.2812 43.0469C55.6797 44.1953 56.207 45.2148 56.8633 46.1055C57.5195 46.9727 58.2812 47.6992 59.1484 48.2852C60.0156 48.8711 60.9414 49.2812 61.9258 49.5156C62.043 48.8594 62.1133 48.1797 62.1367 47.4766C62.1836 46.75 62.207 46.0117 62.207 45.2617C62.207 43.5977 62.0781 42.0977 61.8203 40.7617C61.5625 39.4023 61.2227 38.2539 60.8008 37.3164C60.3789 36.3555 59.8867 35.6172 59.3242 35.1016C58.7617 34.5859 58.1875 34.3281 57.6016 34.3281C56.8047 34.3281 56.125 34.7617 55.5625 35.6289C55 36.4727 54.7188 37.668 54.7188 39.2148Z" fill="#E1C06A"/>
<path d="M71.9102 44.9102L72.2617 44.1719C72.6133 43.4688 72.9297 42.7422 73.2109 41.9922C73.5156 41.2422 73.7734 40.5391 73.9844 39.8828C74.1953 39.2031 74.3594 38.6055 74.4766 38.0898C74.5938 37.5508 74.6758 37.1406 74.7227 36.8594C74.1133 36.7891 73.5273 36.6367 72.9648 36.4023C72.4023 36.168 71.9102 35.8516 71.4883 35.4531C71.0664 35.0547 70.7383 34.5859 70.5039 34.0469C70.2461 33.5078 70.1172 32.8984 70.1172 32.2188C70.1172 31.6797 70.2109 31.1992 70.3984 30.7773C70.5859 30.3555 70.8438 30.0039 71.1719 29.7227C71.4766 29.4414 71.8281 29.2305 72.2266 29.0898C72.6016 28.9258 73 28.8438 73.4219 28.8438C73.9844 28.8438 74.4766 28.9609 74.8984 29.1953C75.3203 29.4297 75.6719 29.7461 75.9531 30.1445C76.2344 30.5195 76.4453 30.9648 76.5859 31.4805C76.7266 31.9727 76.7969 32.4883 76.7969 33.0273C77.4531 33.0273 78.1562 32.9336 78.9062 32.7461C79.6797 32.5586 80.4531 32.3594 81.2266 32.1484C82 31.9141 82.7617 31.7031 83.5117 31.5156C84.2617 31.3281 84.9531 31.2344 85.5859 31.2344C86.125 31.2344 86.5586 31.3516 86.8867 31.5859C87.2148 31.7969 87.3789 32.1602 87.3789 32.6758C87.3789 33.0508 87.2617 33.6719 87.0273 34.5391C86.8164 35.4062 86.5469 36.4141 86.2188 37.5625C85.8906 38.7109 85.5273 39.9648 85.1289 41.3242C84.7539 42.6602 84.4023 44.0195 84.0742 45.4023C83.7461 46.7617 83.4648 48.0859 83.2305 49.375C83.0195 50.6641 82.9141 51.8125 82.9141 52.8203C82.9141 54.0859 83.0547 54.9414 83.3359 55.3867C83.6172 55.832 84.1211 56.0547 84.8477 56.0547C85.1523 56.0547 85.5273 55.9258 85.9727 55.668C86.4414 55.3867 87.0039 54.8594 87.6602 54.0859C88.3164 53.2891 89.0898 52.1641 89.9805 50.7109C90.8945 49.2344 91.9492 47.3008 93.1445 44.9102L93.4961 44.1719L94.9375 45.2617L94.5859 46C93.1797 48.8125 91.9258 51.1211 90.8242 52.9258C89.7227 54.7305 88.7031 56.1602 87.7656 57.2148C86.8516 58.2695 85.9844 59.0078 85.1641 59.4297C84.3438 59.8281 83.5234 60.0273 82.7031 60.0273C81.3203 60.0273 80.1953 59.5 79.3281 58.4453C78.4609 57.3906 78.0273 55.7617 78.0273 53.5586C78.0273 52.3633 78.1914 51.1211 78.5195 49.832C78.8477 48.543 79.2578 47.2656 79.75 46C80.2422 44.7109 80.793 43.4453 81.4023 42.2031C82.0117 40.9609 82.5859 39.7891 83.125 38.6875C83.6875 37.5625 84.1914 36.5195 84.6367 35.5586C85.082 34.5977 85.3984 33.7539 85.5859 33.0273L85.375 32.8164C85 32.8164 84.4961 33.0156 83.8633 33.4141C83.2305 33.8125 82.5156 34.2695 81.7188 34.7852C80.9453 35.2773 80.1133 35.7461 79.2227 36.1914C78.332 36.6367 77.4297 36.9062 76.5156 37C76.4688 37.3281 76.3633 37.8086 76.1992 38.4414C76.0586 39.0742 75.8594 39.7773 75.6016 40.5508C75.3438 41.3242 75.0508 42.1211 74.7227 42.9414C74.3945 43.7617 74.0547 44.5352 73.7031 45.2617L73.3516 46L71.9102 44.9102ZM73.6328 30.8125C73.4219 30.8125 73.2461 30.8828 73.1055 31.0234C72.9648 31.1641 72.8945 31.3281 72.8945 31.5156C72.8945 31.7969 72.9648 32.043 73.1055 32.2539C73.2461 32.4414 73.4219 32.6055 73.6328 32.7461C73.8438 32.8633 74.0547 32.957 74.2656 33.0273C74.5 33.0742 74.6992 33.0977 74.8633 33.0977C74.8633 32.4414 74.7578 31.9023 74.5469 31.4805C74.3359 31.0352 74.0312 30.8125 73.6328 30.8125Z" fill="#E1C06A"/>
<path d="M93.3555 48.4961C93.3555 46.0117 93.4492 43.5156 93.6367 41.0078C93.8242 38.5 94.0703 35.957 94.375 33.3789H91.1758L91.5625 31.2344H94.6562C94.9844 28.8438 95.3125 26.4531 95.6406 24.0625C95.9922 21.6484 96.3086 19.2344 96.5898 16.8203H100.176C100.129 17.3359 100.059 18.0859 99.9648 19.0703C99.8945 20.0312 99.8008 21.1562 99.6836 22.4453C99.5898 23.7109 99.4961 25.1055 99.4023 26.6289C99.3086 28.1289 99.2148 29.6641 99.1211 31.2344H105.941L105.59 33.3789H98.9805C98.8867 34.7148 98.8047 36.0273 98.7344 37.3164C98.6641 38.6055 98.5938 39.8359 98.5234 41.0078C98.4766 42.1562 98.4414 43.2227 98.418 44.207C98.3945 45.168 98.3828 46 98.3828 46.7031C98.3828 48.4844 98.4297 49.9727 98.5234 51.168C98.6406 52.3633 98.8047 53.3242 99.0156 54.0508C99.25 54.7773 99.5312 55.293 99.8594 55.5977C100.211 55.9023 100.609 56.0547 101.055 56.0547C101.641 56.0547 102.285 55.7617 102.988 55.1758C103.715 54.5664 104.465 53.7578 105.238 52.75C106.012 51.7422 106.797 50.5703 107.594 49.2344C108.391 47.875 109.164 46.4336 109.914 44.9102L110.266 44.1719L111.707 45.2617L111.355 46C110.277 48.1797 109.199 50.1367 108.121 51.8711C107.066 53.6055 106.023 55.082 104.992 56.3008C103.961 57.4961 102.953 58.4219 101.969 59.0781C100.984 59.7109 100.035 60.0273 99.1211 60.0273C98.207 60.0273 97.3867 59.8164 96.6602 59.3945C95.957 58.9727 95.3594 58.3047 94.8672 57.3906C94.375 56.4531 94 55.2578 93.7422 53.8047C93.4844 52.3516 93.3555 50.582 93.3555 48.4961Z" fill="#E1C06A"/>
<path d="M131.605 51.3086C131.605 52.6445 131.723 53.7695 131.957 54.6836C132.191 55.5977 132.602 56.0547 133.188 56.0547C133.539 56.0547 133.914 55.8906 134.312 55.5625C134.734 55.2109 135.215 54.6484 135.754 53.875C136.293 53.1016 136.902 52.1055 137.582 50.8867C138.285 49.6445 139.082 48.1328 139.973 46.3516L141.027 44.1719L142.469 45.2617L141.414 47.4414C140.43 49.4102 139.504 51.1797 138.637 52.75C137.793 54.2969 136.984 55.6094 136.211 56.6875C135.438 57.7656 134.676 58.5977 133.926 59.1836C133.199 59.7461 132.473 60.0273 131.746 60.0273C130.973 60.0273 130.316 59.8164 129.777 59.3945C129.262 58.9727 128.828 58.3984 128.477 57.6719C128.125 56.9219 127.855 56.0664 127.668 55.1055C127.48 54.1211 127.352 53.0781 127.281 51.9766C126.719 53.1016 126.098 54.1562 125.418 55.1406C124.738 56.1016 124.023 56.9453 123.273 57.6719C122.547 58.3984 121.785 58.9727 120.988 59.3945C120.191 59.8164 119.395 60.0273 118.598 60.0273C117.426 60.0273 116.289 59.7812 115.188 59.2891C114.086 58.7969 113.102 58.0469 112.234 57.0391C111.391 56.0312 110.711 54.7656 110.195 53.2422C109.68 51.6953 109.422 49.8789 109.422 47.793C109.422 45.3555 109.738 43.1289 110.371 41.1133C111.004 39.0742 111.859 37.3281 112.938 35.875C114.016 34.3984 115.258 33.2617 116.664 32.4648C118.07 31.6445 119.547 31.2344 121.094 31.2344C122.031 31.2344 122.898 31.4453 123.695 31.8672C124.492 32.2891 125.184 32.8047 125.77 33.4141C126.379 34 126.883 34.6328 127.281 35.3125C127.68 35.9688 127.949 36.5312 128.09 37L128.512 33.5898C128.559 33.1445 128.77 32.7695 129.145 32.4648C129.543 32.1602 129.977 31.9258 130.445 31.7617C130.914 31.5742 131.371 31.4453 131.816 31.375C132.262 31.2812 132.578 31.2344 132.766 31.2344C133.047 31.2344 133.234 31.2812 133.328 31.375C133.422 31.4688 133.469 31.6562 133.469 31.9375C133.469 32.2891 133.363 33.0039 133.152 34.082C132.965 35.1367 132.754 36.4961 132.52 38.1602C132.309 39.8008 132.098 41.7344 131.887 43.9609C131.699 46.1875 131.605 48.6367 131.605 51.3086ZM127.738 42.0273C127.738 40.9492 127.574 39.8945 127.246 38.8633C126.918 37.8086 126.473 36.8828 125.91 36.0859C125.348 35.2656 124.691 34.6094 123.941 34.1172C123.215 33.625 122.441 33.3789 121.621 33.3789C120.613 33.3789 119.664 33.6719 118.773 34.2578C117.906 34.8203 117.145 35.6289 116.488 36.6836C115.855 37.7148 115.352 38.9688 114.977 40.4453C114.602 41.8984 114.414 43.5039 114.414 45.2617C114.414 48.7773 114.965 51.4609 116.066 53.3125C117.168 55.1406 118.633 56.0547 120.461 56.0547C121.258 56.0547 122.078 55.7383 122.922 55.1055C123.789 54.4492 124.574 53.5234 125.277 52.3281C126.004 51.1094 126.59 49.6328 127.035 47.8984C127.504 46.1641 127.738 44.207 127.738 42.0273Z" fill="#E1C06A"/>
<path d="M164.758 60.0273C163.328 60.0273 162.086 59.7227 161.031 59.1133C160 58.5039 159.145 57.6836 158.465 56.6523C157.785 55.5977 157.281 54.3906 156.953 53.0312C156.625 51.6719 156.461 50.2305 156.461 48.707C156.461 47.3711 156.59 46.0117 156.848 44.6289C157.105 43.2461 157.469 41.9102 157.938 40.6211C158.43 39.3086 159.039 38.0898 159.766 36.9648C160.492 35.8164 161.324 34.8203 162.262 33.9766C163.199 33.1328 164.242 32.4648 165.391 31.9727C166.562 31.4805 167.816 31.2344 169.152 31.2344C170.676 31.2344 171.965 31.5742 173.02 32.2539C174.098 32.9336 174.965 33.7656 175.621 34.75C175.645 30.3203 175.867 26.4062 176.289 23.0078C176.711 19.6094 177.297 16.7617 178.047 14.4648C178.82 12.168 179.734 10.4336 180.789 9.26172C181.844 8.06641 183.004 7.46875 184.27 7.46875C184.715 7.46875 185.113 7.52734 185.465 7.64453C185.84 7.73828 186.145 7.92578 186.379 8.20703C186.637 8.48828 186.824 8.875 186.941 9.36719C187.082 9.83594 187.152 10.4453 187.152 11.1953C187.152 12.7422 187 14.5234 186.695 16.5391C186.391 18.5312 185.957 20.7109 185.395 23.0781C184.832 25.4219 184.141 27.9297 183.32 30.6016C182.523 33.25 181.633 36.0039 180.648 38.8633C180.672 41.3711 180.707 43.5391 180.754 45.3672C180.801 47.1953 180.859 48.7422 180.93 50.0078C181.023 51.2734 181.129 52.3047 181.246 53.1016C181.387 53.8984 181.539 54.5195 181.703 54.9648C181.891 55.3867 182.102 55.6797 182.336 55.8438C182.594 55.9844 182.875 56.0547 183.18 56.0547C183.719 56.0547 184.258 55.8203 184.797 55.3516C185.359 54.8594 185.957 54.1445 186.59 53.207C187.223 52.2461 187.902 51.0742 188.629 49.6914C189.379 48.3086 190.199 46.7148 191.09 44.9102L191.477 44.1719L192.918 45.2617L192.531 46C191.172 48.7422 189.977 51.0156 188.945 52.8203C187.914 54.6016 186.965 56.0312 186.098 57.1094C185.254 58.1875 184.445 58.9492 183.672 59.3945C182.898 59.8164 182.09 60.0273 181.246 60.0273C180.426 60.0273 179.711 59.8281 179.102 59.4297C178.516 59.0078 178.012 58.3633 177.59 57.4961C177.168 56.6055 176.828 55.4805 176.57 54.1211C176.312 52.7383 176.113 51.0859 175.973 49.1641C175.152 50.8047 174.309 52.293 173.441 53.6289C172.574 54.9648 171.672 56.1133 170.734 57.0742C169.82 58.0117 168.859 58.7383 167.852 59.2539C166.844 59.7695 165.812 60.0273 164.758 60.0273ZM169.855 33.0273C168.566 33.0273 167.441 33.4258 166.48 34.2227C165.52 34.9961 164.723 36.0156 164.09 37.2812C163.457 38.5234 162.988 39.9297 162.684 41.5C162.379 43.0703 162.227 44.6406 162.227 46.2109C162.227 47.5 162.32 48.7422 162.508 49.9375C162.719 51.1094 163.023 52.1523 163.422 53.0664C163.844 53.9805 164.348 54.707 164.934 55.2461C165.52 55.7852 166.199 56.0547 166.973 56.0547C167.723 56.0547 168.449 55.8672 169.152 55.4922C169.879 55.1172 170.594 54.5195 171.297 53.6992C172 52.8555 172.715 51.7773 173.441 50.4648C174.168 49.1289 174.941 47.5117 175.762 45.6133C175.715 44.4883 175.68 43.293 175.656 42.0273C175.633 40.7383 175.621 39.3672 175.621 37.9141C175.105 36.3906 174.32 35.1953 173.266 34.3281C172.234 33.4609 171.098 33.0273 169.855 33.0273ZM184.621 12.4961C184.621 11.418 184.492 10.668 184.234 10.2461C184 9.82422 183.719 9.61328 183.391 9.61328C182.828 9.61328 182.371 10.1641 182.02 11.2656C181.668 12.3438 181.387 13.8086 181.176 15.6602C180.988 17.5117 180.848 19.6562 180.754 22.0938C180.684 24.5312 180.648 27.0977 180.648 29.793V33.6602C181.375 31.293 181.996 29.1602 182.512 27.2617C183.027 25.3633 183.438 23.5938 183.742 21.9531C184.047 20.3125 184.27 18.7305 184.41 17.207C184.551 15.6836 184.621 14.1133 184.621 12.4961Z" fill="#E1C06A"/>
<path d="M220.973 45.2617L220.586 46C219.789 47.5938 218.723 48.8711 217.387 49.832C216.074 50.7695 214.645 51.3789 213.098 51.6602C212.676 52.8555 212.125 53.9688 211.445 55C210.789 56.0078 210.027 56.8867 209.16 57.6367C208.316 58.3867 207.355 58.9727 206.277 59.3945C205.223 59.8164 204.074 60.0273 202.832 60.0273C201.027 60.0273 199.398 59.6523 197.945 58.9023C196.516 58.1289 195.297 57.0977 194.289 55.8086C193.281 54.4961 192.508 52.9727 191.969 51.2383C191.43 49.4805 191.16 47.6055 191.16 45.6133C191.16 43.8789 191.359 42.3086 191.758 40.9023C192.156 39.4727 192.66 38.207 193.27 37.1055C193.879 35.9805 194.559 35.0078 195.309 34.1875C196.059 33.3438 196.797 32.6523 197.523 32.1133C198.25 31.5742 198.906 31.1758 199.492 30.918C200.102 30.6367 200.559 30.4961 200.863 30.4961L201.32 31.7266C200.359 32.4297 199.504 33.4141 198.754 34.6797C198.098 35.7578 197.5 37.1875 196.961 38.9688C196.445 40.75 196.188 42.9648 196.188 45.6133C196.188 47.2305 196.34 48.8008 196.645 50.3242C196.949 51.8477 197.395 53.1953 197.98 54.3672C198.566 55.5391 199.281 56.4766 200.125 57.1797C200.992 57.8828 201.965 58.2344 203.043 58.2344C204.52 58.2344 205.738 57.6484 206.699 56.4766C207.684 55.2812 208.41 53.6523 208.879 51.5898C207.66 51.332 206.5 50.8516 205.398 50.1484C204.297 49.4453 203.324 48.5781 202.48 47.5469C201.637 46.4922 200.957 45.2852 200.441 43.9258C199.949 42.5664 199.703 41.0898 199.703 39.4961C199.703 38.1836 199.867 37.0352 200.195 36.0508C200.547 35.043 201.004 34.2109 201.566 33.5547C202.129 32.875 202.773 32.3711 203.5 32.043C204.25 31.6914 205.035 31.5156 205.855 31.5156C206.816 31.5156 207.801 31.7969 208.809 32.3594C209.816 32.8984 210.73 33.7188 211.551 34.8203C212.371 35.8984 213.039 37.2578 213.555 38.8984C214.07 40.5391 214.328 42.4492 214.328 44.6289C214.328 45.4492 214.281 46.2578 214.188 47.0547C214.094 47.8516 213.953 48.625 213.766 49.375C214.891 49.0469 215.91 48.5195 216.824 47.793C217.762 47.0664 218.535 46.1055 219.145 44.9102L219.531 44.1719L220.973 45.2617ZM202.023 39.2148C202.023 40.5977 202.211 41.875 202.586 43.0469C202.984 44.1953 203.512 45.2148 204.168 46.1055C204.824 46.9727 205.586 47.6992 206.453 48.2852C207.32 48.8711 208.246 49.2812 209.23 49.5156C209.348 48.8594 209.418 48.1797 209.441 47.4766C209.488 46.75 209.512 46.0117 209.512 45.2617C209.512 43.5977 209.383 42.0977 209.125 40.7617C208.867 39.4023 208.527 38.2539 208.105 37.3164C207.684 36.3555 207.191 35.6172 206.629 35.1016C206.066 34.5859 205.492 34.3281 204.906 34.3281C204.109 34.3281 203.43 34.7617 202.867 35.6289C202.305 36.4727 202.023 37.668 202.023 39.2148Z" fill="#E1C06A"/>
<path d="M241.539 33.3086C241.539 37.5273 242.02 41.207 242.98 44.3477C243.941 47.4883 245.207 50.1016 246.777 52.1875C248.371 54.2734 250.176 55.8438 252.191 56.8984C254.23 57.9297 256.316 58.4453 258.449 58.4453C259.973 58.4453 261.473 58.1641 262.949 57.6016C264.449 57.0391 265.902 56.1953 267.309 55.0703C268.715 53.9453 270.062 52.5391 271.352 50.8516C272.664 49.1641 273.883 47.1836 275.008 44.9102L275.395 44.1719L276.836 45.2617L276.449 46C275.16 48.6016 273.73 50.8867 272.16 52.8555C270.613 54.8242 268.961 56.4766 267.203 57.8125C265.445 59.125 263.617 60.1211 261.719 60.8008C259.844 61.4805 257.922 61.8203 255.953 61.8203C254.266 61.8203 252.59 61.5742 250.926 61.082C249.285 60.6133 247.715 59.8984 246.215 58.9375C244.738 57.9531 243.355 56.7227 242.066 55.2461C240.801 53.7695 239.699 52.0469 238.762 50.0781C237.824 48.0859 237.086 45.8477 236.547 43.3633C236.031 40.8555 235.773 38.1016 235.773 35.1016C235.773 31.1406 236.102 27.5547 236.758 24.3438C237.438 21.1094 238.34 18.2383 239.465 15.7305C240.613 13.1992 241.938 11.0078 243.438 9.15625C244.961 7.30469 246.555 5.78125 248.219 4.58594C249.883 3.36719 251.582 2.46484 253.316 1.87891C255.051 1.29297 256.715 1 258.309 1C260.395 1 262.316 1.36328 264.074 2.08984C265.832 2.79297 267.344 3.80078 268.609 5.11328C269.875 6.40234 270.859 7.98438 271.562 9.85938C272.289 11.7109 272.652 13.7734 272.652 16.0469C272.652 18.2266 272.312 20.2773 271.633 22.1992C270.977 24.1211 270.086 25.8086 268.961 27.2617C267.859 28.6914 266.582 29.8281 265.129 30.6719C263.699 31.5156 262.199 31.9375 260.629 31.9375C259.574 31.9375 258.59 31.75 257.676 31.375C256.762 31 255.965 30.4727 255.285 29.793C254.605 29.1133 254.066 28.2812 253.668 27.2969C253.27 26.3125 253.07 25.2227 253.07 24.0273C253.07 22.8789 253.246 21.7773 253.598 20.7227C253.949 19.6445 254.395 18.6602 254.934 17.7695C255.473 16.8555 256.059 16.0586 256.691 15.3789C257.348 14.6758 257.98 14.125 258.59 13.7266L259.539 14.6758C259.047 15.2383 258.578 15.8477 258.133 16.5039C257.711 17.1367 257.336 17.8281 257.008 18.5781C256.68 19.3047 256.422 20.0898 256.234 20.9336C256.047 21.7773 255.953 22.6914 255.953 23.6758C255.953 24.6836 256.07 25.5859 256.305 26.3828C256.562 27.1797 256.902 27.8594 257.324 28.4219C257.77 28.9844 258.273 29.418 258.836 29.7227C259.398 30.0039 259.996 30.1445 260.629 30.1445C261.496 30.1445 262.363 29.8281 263.23 29.1953C264.098 28.5391 264.871 27.5898 265.551 26.3477C266.23 25.082 266.781 23.5352 267.203 21.707C267.625 19.8789 267.836 17.7695 267.836 15.3789C267.836 13.2227 267.59 11.3594 267.098 9.78906C266.629 8.19531 265.973 6.88281 265.129 5.85156C264.285 4.82031 263.289 4.05859 262.141 3.56641C260.992 3.05078 259.762 2.79297 258.449 2.79297C257.512 2.79297 256.445 3.00391 255.25 3.42578C254.055 3.82422 252.824 4.49219 251.559 5.42969C250.316 6.36719 249.098 7.60938 247.902 9.15625C246.707 10.6797 245.629 12.5781 244.668 14.8516C243.73 17.1016 242.969 19.75 242.383 22.7969C241.82 25.8438 241.539 29.3477 241.539 33.3086Z" fill="#E1C06A"/>
<path d="M285.766 56.0547C286.586 56.0547 287.418 55.8438 288.262 55.4219C289.129 55 289.996 54.3438 290.863 53.4531C291.754 52.5625 292.668 51.4141 293.605 50.0078C294.543 48.5781 295.504 46.8789 296.488 44.9102L296.84 44.1719L298.281 45.2617L297.93 46C296.664 48.5078 295.398 50.6523 294.133 52.4336C292.891 54.2148 291.66 55.668 290.441 56.793C289.246 57.918 288.062 58.7383 286.891 59.2539C285.719 59.7695 284.594 60.0273 283.516 60.0273C281.992 60.0273 280.633 59.7109 279.438 59.0781C278.242 58.4453 277.234 57.5898 276.414 56.5117C275.594 55.4102 274.973 54.1445 274.551 52.7148C274.105 51.2617 273.883 49.7383 273.883 48.1445C273.883 45.6133 274.234 43.3164 274.938 41.2539C275.617 39.168 276.531 37.3867 277.68 35.9102C278.852 34.4336 280.176 33.2852 281.652 32.4648C283.129 31.6445 284.664 31.2344 286.258 31.2344C287.875 31.2344 289.105 31.6445 289.949 32.4648C290.816 33.2852 291.25 34.3164 291.25 35.5586C291.25 36.7539 290.91 37.8789 290.23 38.9336C289.551 39.9648 288.625 40.9844 287.453 41.9922C286.305 42.9766 284.969 43.9609 283.445 44.9453C281.922 45.9062 280.316 46.9023 278.629 47.9336C278.793 49.1523 279.074 50.2656 279.473 51.2734C279.871 52.2578 280.375 53.1133 280.984 53.8398C281.594 54.543 282.297 55.0938 283.094 55.4922C283.891 55.8672 284.781 56.0547 285.766 56.0547ZM286.855 36.6133C286.855 35.6758 286.598 34.9375 286.082 34.3984C285.59 33.8594 284.98 33.5898 284.254 33.5898C283.645 33.5898 283 33.8125 282.32 34.2578C281.641 34.6797 281.02 35.3711 280.457 36.332C279.895 37.2695 279.426 38.4766 279.051 39.9531C278.676 41.4297 278.488 43.2227 278.488 45.332V46.1406C279.285 45.7188 280.164 45.168 281.125 44.4883C282.109 43.7852 283.023 43.0117 283.867 42.168C284.711 41.3242 285.414 40.4336 285.977 39.4961C286.562 38.5352 286.855 37.5742 286.855 36.6133ZM280.07 25.8906L286.855 18.8594L290.512 22.4453L281.02 27.4023L280.07 25.8906Z" fill="#E1C06A"/>
<path d="M311.113 52.3984C310.996 52.5859 310.82 52.9141 310.586 53.3828C310.375 53.8281 310.094 54.332 309.742 54.8945C309.414 55.457 309.016 56.043 308.547 56.6523C308.102 57.2617 307.586 57.8125 307 58.3047C306.414 58.7969 305.758 59.207 305.031 59.5352C304.328 59.8633 303.543 60.0273 302.676 60.0273C301.996 60.0273 301.293 59.8867 300.566 59.6055C299.84 59.3242 299.16 58.8086 298.527 58.0586C297.918 57.3086 297.414 56.2891 297.016 55C296.617 53.6875 296.418 52 296.418 49.9375C296.418 47.9688 296.488 46 296.629 44.0312C296.77 42.0391 296.934 40.2227 297.121 38.582C297.332 36.9414 297.531 35.5703 297.719 34.4688C297.906 33.3672 298.047 32.6992 298.141 32.4648C298.234 32.2539 298.422 32.0664 298.703 31.9023C298.984 31.7383 299.301 31.6094 299.652 31.5156C300.027 31.4219 300.402 31.3516 300.777 31.3047C301.176 31.2578 301.516 31.2344 301.797 31.2344C302.172 31.2344 302.465 31.3281 302.676 31.5156C302.91 31.7031 303.027 32.0195 303.027 32.4648C303.027 32.6758 302.98 33.0977 302.887 33.7305C302.816 34.3398 302.723 35.0898 302.605 35.9805C302.488 36.8711 302.359 37.8555 302.219 38.9336C302.102 40.0117 301.984 41.1133 301.867 42.2383C301.75 43.3398 301.645 44.4414 301.551 45.543C301.48 46.6211 301.445 47.6055 301.445 48.4961C301.445 51.0508 301.715 52.9492 302.254 54.1914C302.816 55.4336 303.73 56.0547 304.996 56.0547C306.074 56.0547 307.164 55.2695 308.266 53.6992C309.391 52.1289 310.363 49.8438 311.184 46.8438C311.301 45.5781 311.406 44.2305 311.5 42.8008C311.617 41.3477 311.723 39.9766 311.816 38.6875C311.91 37.375 311.992 36.2031 312.062 35.1719C312.156 34.1406 312.238 33.4023 312.309 32.957C312.379 32.6289 312.566 32.3594 312.871 32.1484C313.176 31.9141 313.516 31.7383 313.891 31.6211C314.289 31.4805 314.664 31.3867 315.016 31.3398C315.391 31.2695 315.672 31.2344 315.859 31.2344C316.258 31.2344 316.527 31.3281 316.668 31.5156C316.832 31.6797 316.914 31.9492 316.914 32.3242C316.914 32.6523 316.879 33.2852 316.809 34.2227C316.762 35.1367 316.691 36.2148 316.598 37.457C316.527 38.6758 316.445 39.9883 316.352 41.3945C316.258 42.8008 316.164 44.1602 316.07 45.4727C316 46.7617 315.93 47.9336 315.859 48.9883C315.812 50.043 315.789 50.8398 315.789 51.3789C315.789 52.9727 315.871 54.2266 316.035 55.1406C316.223 56.0547 316.621 56.5117 317.23 56.5117C317.676 56.5117 318.156 56.2305 318.672 55.668C319.211 55.082 319.785 54.2734 320.395 53.2422C321.027 52.2109 321.707 50.9922 322.434 49.5859C323.16 48.1562 323.945 46.5977 324.789 44.9102L325.141 44.1719L326.582 45.2617L326.23 46C325.105 48.2266 324.109 50.2188 323.242 51.9766C322.398 53.7109 321.59 55.1758 320.816 56.3711C320.043 57.5664 319.258 58.4805 318.461 59.1133C317.664 59.7227 316.773 60.0273 315.789 60.0273C314.875 60.0273 314.113 59.8516 313.504 59.5C312.918 59.1484 312.449 58.6445 312.098 57.9883C311.746 57.332 311.488 56.5352 311.324 55.5977C311.184 54.6602 311.113 53.5938 311.113 52.3984Z" fill="#E1C06A"/>
<path d="M20.0898 51.7305C19.832 53.5586 19.457 55.1172 18.9648 56.4062C18.4727 57.6719 17.875 58.7148 17.1719 59.5352C16.4688 60.332 15.6602 60.9062 14.7461 61.2578C13.8555 61.6328 12.8711 61.8203 11.793 61.8203C10.2695 61.8203 8.83984 61.375 7.50391 60.4844C6.19141 59.5938 5.05469 58.2695 4.09375 56.5117C3.13281 54.7539 2.37109 52.5742 1.80859 49.9727C1.26953 47.3711 1 44.3594 1 40.9375C1 37.3516 1.33984 33.8711 2.01953 30.4961C2.72266 27.1211 3.70703 23.957 4.97266 21.0039C6.26172 18.0508 7.79688 15.3555 9.57812 12.918C11.3828 10.457 13.3867 8.35938 15.5898 6.625C17.8164 4.86719 20.2188 3.50781 22.7969 2.54688C25.375 1.5625 28.0703 1.07031 30.8828 1.07031C33.2969 1.07031 35.5 1.43359 37.4922 2.16016C39.4844 2.88672 41.1953 3.89453 42.625 5.18359C44.0547 6.47266 45.1562 7.99609 45.9297 9.75391C46.7031 11.5117 47.0898 13.4102 47.0898 15.4492C47.0898 17.9102 46.75 20.207 46.0703 22.3398C45.3906 24.4492 44.4414 26.3828 43.2227 28.1406C42.0273 29.8984 40.5977 31.4688 38.9336 32.8516C37.2695 34.2344 35.4531 35.4062 33.4844 36.3672C31.5391 37.3281 29.4766 38.0781 27.2969 38.6172C25.1406 39.1328 22.9492 39.4258 20.7227 39.4961C20.6523 42.4258 20.5703 44.8984 20.4766 46.9141C20.4062 48.9062 20.2773 50.5117 20.0898 51.7305ZM13.9727 37C14.0898 37.0469 14.2305 37.0938 14.3945 37.1406C14.5352 37.1875 14.6992 37.2344 14.8867 37.2812C15.0977 37.3281 15.3438 37.375 15.625 37.4219C15.5781 34.4922 15.5195 31.8086 15.4492 29.3711C15.4023 26.9102 15.3438 24.7656 15.2734 22.9375C15.1797 20.8047 15.0977 18.8828 15.0273 17.1719C15.1914 17.0312 15.3789 16.9141 15.5898 16.8203C15.7773 16.7266 16 16.6445 16.2578 16.5742C16.5156 16.5039 16.832 16.4688 17.207 16.4688C18.2852 16.4688 19.1523 16.668 19.8086 17.0664C20.4648 17.4414 20.793 18.0859 20.793 19C20.793 22.8672 20.793 26.3359 20.793 29.4062C20.793 32.4766 20.7695 35.2422 20.7227 37.7031C23.793 37.7031 26.5703 37.1172 29.0547 35.9453C31.5625 34.7734 33.6953 33.2148 35.4531 31.2695C37.2109 29.3008 38.5703 27.0391 39.5312 24.4844C40.4922 21.9297 40.9727 19.2578 40.9727 16.4688C40.9727 14.6875 40.7266 13 40.2344 11.4062C39.7656 9.78906 39.0391 8.38281 38.0547 7.1875C37.0703 5.96875 35.8281 5.00781 34.3281 4.30469C32.8516 3.57812 31.1055 3.21484 29.0898 3.21484C27.0508 3.21484 25.0352 3.60156 23.043 4.375C21.0742 5.14844 19.1875 6.30859 17.3828 7.85547C15.6016 9.40234 13.9492 11.3242 12.4258 13.6211C10.9258 15.918 9.61328 18.6016 8.48828 21.6719C7.38672 24.7422 6.51953 28.1875 5.88672 32.0078C5.27734 35.8047 4.97266 39.9883 4.97266 44.5586C4.97266 46.5273 5.06641 48.4492 5.25391 50.3242C5.46484 52.1758 5.80469 53.8281 6.27344 55.2812C6.74219 56.7109 7.36328 57.8594 8.13672 58.7266C8.93359 59.5938 9.91797 60.0273 11.0898 60.0273C11.7227 60.0273 12.3203 59.8984 12.8828 59.6406C13.4453 59.3828 13.9375 58.8555 14.3594 58.0586C14.7812 57.2383 15.1211 56.0781 15.3789 54.5781C15.6367 53.0547 15.7656 51.0273 15.7656 48.4961C15.7656 46.9023 15.7539 45.332 15.7305 43.7852C15.707 42.2148 15.6953 40.6914 15.6953 39.2148C15.3438 39.168 15.0391 39.1094 14.7812 39.0391C14.5234 38.9688 14.3008 38.9102 14.1133 38.8633C13.9023 38.793 13.7266 38.7227 13.5859 38.6523L13.9727 37Z" stroke="#E1C06A" stroke-width="2" mask="url(#path-1-outside-1)"/>
<path d="M73.668 45.2617L73.2812 46C72.4844 47.5938 71.418 48.8711 70.082 49.832C68.7695 50.7695 67.3398 51.3789 65.793 51.6602C65.3711 52.8555 64.8203 53.9688 64.1406 55C63.4844 56.0078 62.7227 56.8867 61.8555 57.6367C61.0117 58.3867 60.0508 58.9727 58.9727 59.3945C57.918 59.8164 56.7695 60.0273 55.5273 60.0273C53.7227 60.0273 52.0938 59.6523 50.6406 58.9023C49.2109 58.1289 47.9922 57.0977 46.9844 55.8086C45.9766 54.4961 45.2031 52.9727 44.6641 51.2383C44.125 49.4805 43.8555 47.6055 43.8555 45.6133C43.8555 43.8789 44.0547 42.3086 44.4531 40.9023C44.8516 39.4727 45.3555 38.207 45.9648 37.1055C46.5742 35.9805 47.2539 35.0078 48.0039 34.1875C48.7539 33.3438 49.4922 32.6523 50.2188 32.1133C50.9453 31.5742 51.6016 31.1758 52.1875 30.918C52.7969 30.6367 53.2539 30.4961 53.5586 30.4961L54.0156 31.7266C53.0547 32.4297 52.1992 33.4141 51.4492 34.6797C50.793 35.7578 50.1953 37.1875 49.6562 38.9688C49.1406 40.75 48.8828 42.9648 48.8828 45.6133C48.8828 47.2305 49.0352 48.8008 49.3398 50.3242C49.6445 51.8477 50.0898 53.1953 50.6758 54.3672C51.2617 55.5391 51.9766 56.4766 52.8203 57.1797C53.6875 57.8828 54.6602 58.2344 55.7383 58.2344C57.2148 58.2344 58.4336 57.6484 59.3945 56.4766C60.3789 55.2812 61.1055 53.6523 61.5742 51.5898C60.3555 51.332 59.1953 50.8516 58.0938 50.1484C56.9922 49.4453 56.0195 48.5781 55.1758 47.5469C54.332 46.4922 53.6523 45.2852 53.1367 43.9258C52.6445 42.5664 52.3984 41.0898 52.3984 39.4961C52.3984 38.1836 52.5625 37.0352 52.8906 36.0508C53.2422 35.043 53.6992 34.2109 54.2617 33.5547C54.8242 32.875 55.4688 32.3711 56.1953 32.043C56.9453 31.6914 57.7305 31.5156 58.5508 31.5156C59.5117 31.5156 60.4961 31.7969 61.5039 32.3594C62.5117 32.8984 63.4258 33.7188 64.2461 34.8203C65.0664 35.8984 65.7344 37.2578 66.25 38.8984C66.7656 40.5391 67.0234 42.4492 67.0234 44.6289C67.0234 45.4492 66.9766 46.2578 66.8828 47.0547C66.7891 47.8516 66.6484 48.625 66.4609 49.375C67.5859 49.0469 68.6055 48.5195 69.5195 47.793C70.457 47.0664 71.2305 46.1055 71.8398 44.9102L72.2266 44.1719L73.668 45.2617ZM54.7188 39.2148C54.7188 40.5977 54.9062 41.875 55.2812 43.0469C55.6797 44.1953 56.207 45.2148 56.8633 46.1055C57.5195 46.9727 58.2812 47.6992 59.1484 48.2852C60.0156 48.8711 60.9414 49.2812 61.9258 49.5156C62.043 48.8594 62.1133 48.1797 62.1367 47.4766C62.1836 46.75 62.207 46.0117 62.207 45.2617C62.207 43.5977 62.0781 42.0977 61.8203 40.7617C61.5625 39.4023 61.2227 38.2539 60.8008 37.3164C60.3789 36.3555 59.8867 35.6172 59.3242 35.1016C58.7617 34.5859 58.1875 34.3281 57.6016 34.3281C56.8047 34.3281 56.125 34.7617 55.5625 35.6289C55 36.4727 54.7188 37.668 54.7188 39.2148Z" stroke="#E1C06A" stroke-width="2" mask="url(#path-1-outside-1)"/>
<path d="M71.9102 44.9102L72.2617 44.1719C72.6133 43.4688 72.9297 42.7422 73.2109 41.9922C73.5156 41.2422 73.7734 40.5391 73.9844 39.8828C74.1953 39.2031 74.3594 38.6055 74.4766 38.0898C74.5938 37.5508 74.6758 37.1406 74.7227 36.8594C74.1133 36.7891 73.5273 36.6367 72.9648 36.4023C72.4023 36.168 71.9102 35.8516 71.4883 35.4531C71.0664 35.0547 70.7383 34.5859 70.5039 34.0469C70.2461 33.5078 70.1172 32.8984 70.1172 32.2188C70.1172 31.6797 70.2109 31.1992 70.3984 30.7773C70.5859 30.3555 70.8438 30.0039 71.1719 29.7227C71.4766 29.4414 71.8281 29.2305 72.2266 29.0898C72.6016 28.9258 73 28.8438 73.4219 28.8438C73.9844 28.8438 74.4766 28.9609 74.8984 29.1953C75.3203 29.4297 75.6719 29.7461 75.9531 30.1445C76.2344 30.5195 76.4453 30.9648 76.5859 31.4805C76.7266 31.9727 76.7969 32.4883 76.7969 33.0273C77.4531 33.0273 78.1562 32.9336 78.9062 32.7461C79.6797 32.5586 80.4531 32.3594 81.2266 32.1484C82 31.9141 82.7617 31.7031 83.5117 31.5156C84.2617 31.3281 84.9531 31.2344 85.5859 31.2344C86.125 31.2344 86.5586 31.3516 86.8867 31.5859C87.2148 31.7969 87.3789 32.1602 87.3789 32.6758C87.3789 33.0508 87.2617 33.6719 87.0273 34.5391C86.8164 35.4062 86.5469 36.4141 86.2188 37.5625C85.8906 38.7109 85.5273 39.9648 85.1289 41.3242C84.7539 42.6602 84.4023 44.0195 84.0742 45.4023C83.7461 46.7617 83.4648 48.0859 83.2305 49.375C83.0195 50.6641 82.9141 51.8125 82.9141 52.8203C82.9141 54.0859 83.0547 54.9414 83.3359 55.3867C83.6172 55.832 84.1211 56.0547 84.8477 56.0547C85.1523 56.0547 85.5273 55.9258 85.9727 55.668C86.4414 55.3867 87.0039 54.8594 87.6602 54.0859C88.3164 53.2891 89.0898 52.1641 89.9805 50.7109C90.8945 49.2344 91.9492 47.3008 93.1445 44.9102L93.4961 44.1719L94.9375 45.2617L94.5859 46C93.1797 48.8125 91.9258 51.1211 90.8242 52.9258C89.7227 54.7305 88.7031 56.1602 87.7656 57.2148C86.8516 58.2695 85.9844 59.0078 85.1641 59.4297C84.3438 59.8281 83.5234 60.0273 82.7031 60.0273C81.3203 60.0273 80.1953 59.5 79.3281 58.4453C78.4609 57.3906 78.0273 55.7617 78.0273 53.5586C78.0273 52.3633 78.1914 51.1211 78.5195 49.832C78.8477 48.543 79.2578 47.2656 79.75 46C80.2422 44.7109 80.793 43.4453 81.4023 42.2031C82.0117 40.9609 82.5859 39.7891 83.125 38.6875C83.6875 37.5625 84.1914 36.5195 84.6367 35.5586C85.082 34.5977 85.3984 33.7539 85.5859 33.0273L85.375 32.8164C85 32.8164 84.4961 33.0156 83.8633 33.4141C83.2305 33.8125 82.5156 34.2695 81.7188 34.7852C80.9453 35.2773 80.1133 35.7461 79.2227 36.1914C78.332 36.6367 77.4297 36.9062 76.5156 37C76.4688 37.3281 76.3633 37.8086 76.1992 38.4414C76.0586 39.0742 75.8594 39.7773 75.6016 40.5508C75.3438 41.3242 75.0508 42.1211 74.7227 42.9414C74.3945 43.7617 74.0547 44.5352 73.7031 45.2617L73.3516 46L71.9102 44.9102ZM73.6328 30.8125C73.4219 30.8125 73.2461 30.8828 73.1055 31.0234C72.9648 31.1641 72.8945 31.3281 72.8945 31.5156C72.8945 31.7969 72.9648 32.043 73.1055 32.2539C73.2461 32.4414 73.4219 32.6055 73.6328 32.7461C73.8438 32.8633 74.0547 32.957 74.2656 33.0273C74.5 33.0742 74.6992 33.0977 74.8633 33.0977C74.8633 32.4414 74.7578 31.9023 74.5469 31.4805C74.3359 31.0352 74.0312 30.8125 73.6328 30.8125Z" stroke="#E1C06A" stroke-width="2" mask="url(#path-1-outside-1)"/>
<path d="M93.3555 48.4961C93.3555 46.0117 93.4492 43.5156 93.6367 41.0078C93.8242 38.5 94.0703 35.957 94.375 33.3789H91.1758L91.5625 31.2344H94.6562C94.9844 28.8438 95.3125 26.4531 95.6406 24.0625C95.9922 21.6484 96.3086 19.2344 96.5898 16.8203H100.176C100.129 17.3359 100.059 18.0859 99.9648 19.0703C99.8945 20.0312 99.8008 21.1562 99.6836 22.4453C99.5898 23.7109 99.4961 25.1055 99.4023 26.6289C99.3086 28.1289 99.2148 29.6641 99.1211 31.2344H105.941L105.59 33.3789H98.9805C98.8867 34.7148 98.8047 36.0273 98.7344 37.3164C98.6641 38.6055 98.5938 39.8359 98.5234 41.0078C98.4766 42.1562 98.4414 43.2227 98.418 44.207C98.3945 45.168 98.3828 46 98.3828 46.7031C98.3828 48.4844 98.4297 49.9727 98.5234 51.168C98.6406 52.3633 98.8047 53.3242 99.0156 54.0508C99.25 54.7773 99.5312 55.293 99.8594 55.5977C100.211 55.9023 100.609 56.0547 101.055 56.0547C101.641 56.0547 102.285 55.7617 102.988 55.1758C103.715 54.5664 104.465 53.7578 105.238 52.75C106.012 51.7422 106.797 50.5703 107.594 49.2344C108.391 47.875 109.164 46.4336 109.914 44.9102L110.266 44.1719L111.707 45.2617L111.355 46C110.277 48.1797 109.199 50.1367 108.121 51.8711C107.066 53.6055 106.023 55.082 104.992 56.3008C103.961 57.4961 102.953 58.4219 101.969 59.0781C100.984 59.7109 100.035 60.0273 99.1211 60.0273C98.207 60.0273 97.3867 59.8164 96.6602 59.3945C95.957 58.9727 95.3594 58.3047 94.8672 57.3906C94.375 56.4531 94 55.2578 93.7422 53.8047C93.4844 52.3516 93.3555 50.582 93.3555 48.4961Z" stroke="#E1C06A" stroke-width="2" mask="url(#path-1-outside-1)"/>
<path d="M131.605 51.3086C131.605 52.6445 131.723 53.7695 131.957 54.6836C132.191 55.5977 132.602 56.0547 133.188 56.0547C133.539 56.0547 133.914 55.8906 134.312 55.5625C134.734 55.2109 135.215 54.6484 135.754 53.875C136.293 53.1016 136.902 52.1055 137.582 50.8867C138.285 49.6445 139.082 48.1328 139.973 46.3516L141.027 44.1719L142.469 45.2617L141.414 47.4414C140.43 49.4102 139.504 51.1797 138.637 52.75C137.793 54.2969 136.984 55.6094 136.211 56.6875C135.438 57.7656 134.676 58.5977 133.926 59.1836C133.199 59.7461 132.473 60.0273 131.746 60.0273C130.973 60.0273 130.316 59.8164 129.777 59.3945C129.262 58.9727 128.828 58.3984 128.477 57.6719C128.125 56.9219 127.855 56.0664 127.668 55.1055C127.48 54.1211 127.352 53.0781 127.281 51.9766C126.719 53.1016 126.098 54.1562 125.418 55.1406C124.738 56.1016 124.023 56.9453 123.273 57.6719C122.547 58.3984 121.785 58.9727 120.988 59.3945C120.191 59.8164 119.395 60.0273 118.598 60.0273C117.426 60.0273 116.289 59.7812 115.188 59.2891C114.086 58.7969 113.102 58.0469 112.234 57.0391C111.391 56.0312 110.711 54.7656 110.195 53.2422C109.68 51.6953 109.422 49.8789 109.422 47.793C109.422 45.3555 109.738 43.1289 110.371 41.1133C111.004 39.0742 111.859 37.3281 112.938 35.875C114.016 34.3984 115.258 33.2617 116.664 32.4648C118.07 31.6445 119.547 31.2344 121.094 31.2344C122.031 31.2344 122.898 31.4453 123.695 31.8672C124.492 32.2891 125.184 32.8047 125.77 33.4141C126.379 34 126.883 34.6328 127.281 35.3125C127.68 35.9688 127.949 36.5312 128.09 37L128.512 33.5898C128.559 33.1445 128.77 32.7695 129.145 32.4648C129.543 32.1602 129.977 31.9258 130.445 31.7617C130.914 31.5742 131.371 31.4453 131.816 31.375C132.262 31.2812 132.578 31.2344 132.766 31.2344C133.047 31.2344 133.234 31.2812 133.328 31.375C133.422 31.4688 133.469 31.6562 133.469 31.9375C133.469 32.2891 133.363 33.0039 133.152 34.082C132.965 35.1367 132.754 36.4961 132.52 38.1602C132.309 39.8008 132.098 41.7344 131.887 43.9609C131.699 46.1875 131.605 48.6367 131.605 51.3086ZM127.738 42.0273C127.738 40.9492 127.574 39.8945 127.246 38.8633C126.918 37.8086 126.473 36.8828 125.91 36.0859C125.348 35.2656 124.691 34.6094 123.941 34.1172C123.215 33.625 122.441 33.3789 121.621 33.3789C120.613 33.3789 119.664 33.6719 118.773 34.2578C117.906 34.8203 117.145 35.6289 116.488 36.6836C115.855 37.7148 115.352 38.9688 114.977 40.4453C114.602 41.8984 114.414 43.5039 114.414 45.2617C114.414 48.7773 114.965 51.4609 116.066 53.3125C117.168 55.1406 118.633 56.0547 120.461 56.0547C121.258 56.0547 122.078 55.7383 122.922 55.1055C123.789 54.4492 124.574 53.5234 125.277 52.3281C126.004 51.1094 126.59 49.6328 127.035 47.8984C127.504 46.1641 127.738 44.207 127.738 42.0273Z" stroke="#E1C06A" stroke-width="2" mask="url(#path-1-outside-1)"/>
<path d="M164.758 60.0273C163.328 60.0273 162.086 59.7227 161.031 59.1133C160 58.5039 159.145 57.6836 158.465 56.6523C157.785 55.5977 157.281 54.3906 156.953 53.0312C156.625 51.6719 156.461 50.2305 156.461 48.707C156.461 47.3711 156.59 46.0117 156.848 44.6289C157.105 43.2461 157.469 41.9102 157.938 40.6211C158.43 39.3086 159.039 38.0898 159.766 36.9648C160.492 35.8164 161.324 34.8203 162.262 33.9766C163.199 33.1328 164.242 32.4648 165.391 31.9727C166.562 31.4805 167.816 31.2344 169.152 31.2344C170.676 31.2344 171.965 31.5742 173.02 32.2539C174.098 32.9336 174.965 33.7656 175.621 34.75C175.645 30.3203 175.867 26.4062 176.289 23.0078C176.711 19.6094 177.297 16.7617 178.047 14.4648C178.82 12.168 179.734 10.4336 180.789 9.26172C181.844 8.06641 183.004 7.46875 184.27 7.46875C184.715 7.46875 185.113 7.52734 185.465 7.64453C185.84 7.73828 186.145 7.92578 186.379 8.20703C186.637 8.48828 186.824 8.875 186.941 9.36719C187.082 9.83594 187.152 10.4453 187.152 11.1953C187.152 12.7422 187 14.5234 186.695 16.5391C186.391 18.5312 185.957 20.7109 185.395 23.0781C184.832 25.4219 184.141 27.9297 183.32 30.6016C182.523 33.25 181.633 36.0039 180.648 38.8633C180.672 41.3711 180.707 43.5391 180.754 45.3672C180.801 47.1953 180.859 48.7422 180.93 50.0078C181.023 51.2734 181.129 52.3047 181.246 53.1016C181.387 53.8984 181.539 54.5195 181.703 54.9648C181.891 55.3867 182.102 55.6797 182.336 55.8438C182.594 55.9844 182.875 56.0547 183.18 56.0547C183.719 56.0547 184.258 55.8203 184.797 55.3516C185.359 54.8594 185.957 54.1445 186.59 53.207C187.223 52.2461 187.902 51.0742 188.629 49.6914C189.379 48.3086 190.199 46.7148 191.09 44.9102L191.477 44.1719L192.918 45.2617L192.531 46C191.172 48.7422 189.977 51.0156 188.945 52.8203C187.914 54.6016 186.965 56.0312 186.098 57.1094C185.254 58.1875 184.445 58.9492 183.672 59.3945C182.898 59.8164 182.09 60.0273 181.246 60.0273C180.426 60.0273 179.711 59.8281 179.102 59.4297C178.516 59.0078 178.012 58.3633 177.59 57.4961C177.168 56.6055 176.828 55.4805 176.57 54.1211C176.312 52.7383 176.113 51.0859 175.973 49.1641C175.152 50.8047 174.309 52.293 173.441 53.6289C172.574 54.9648 171.672 56.1133 170.734 57.0742C169.82 58.0117 168.859 58.7383 167.852 59.2539C166.844 59.7695 165.812 60.0273 164.758 60.0273ZM169.855 33.0273C168.566 33.0273 167.441 33.4258 166.48 34.2227C165.52 34.9961 164.723 36.0156 164.09 37.2812C163.457 38.5234 162.988 39.9297 162.684 41.5C162.379 43.0703 162.227 44.6406 162.227 46.2109C162.227 47.5 162.32 48.7422 162.508 49.9375C162.719 51.1094 163.023 52.1523 163.422 53.0664C163.844 53.9805 164.348 54.707 164.934 55.2461C165.52 55.7852 166.199 56.0547 166.973 56.0547C167.723 56.0547 168.449 55.8672 169.152 55.4922C169.879 55.1172 170.594 54.5195 171.297 53.6992C172 52.8555 172.715 51.7773 173.441 50.4648C174.168 49.1289 174.941 47.5117 175.762 45.6133C175.715 44.4883 175.68 43.293 175.656 42.0273C175.633 40.7383 175.621 39.3672 175.621 37.9141C175.105 36.3906 174.32 35.1953 173.266 34.3281C172.234 33.4609 171.098 33.0273 169.855 33.0273ZM184.621 12.4961C184.621 11.418 184.492 10.668 184.234 10.2461C184 9.82422 183.719 9.61328 183.391 9.61328C182.828 9.61328 182.371 10.1641 182.02 11.2656C181.668 12.3438 181.387 13.8086 181.176 15.6602C180.988 17.5117 180.848 19.6562 180.754 22.0938C180.684 24.5312 180.648 27.0977 180.648 29.793V33.6602C181.375 31.293 181.996 29.1602 182.512 27.2617C183.027 25.3633 183.438 23.5938 183.742 21.9531C184.047 20.3125 184.27 18.7305 184.41 17.207C184.551 15.6836 184.621 14.1133 184.621 12.4961Z" stroke="#E1C06A" stroke-width="2" mask="url(#path-1-outside-1)"/>
<path d="M220.973 45.2617L220.586 46C219.789 47.5938 218.723 48.8711 217.387 49.832C216.074 50.7695 214.645 51.3789 213.098 51.6602C212.676 52.8555 212.125 53.9688 211.445 55C210.789 56.0078 210.027 56.8867 209.16 57.6367C208.316 58.3867 207.355 58.9727 206.277 59.3945C205.223 59.8164 204.074 60.0273 202.832 60.0273C201.027 60.0273 199.398 59.6523 197.945 58.9023C196.516 58.1289 195.297 57.0977 194.289 55.8086C193.281 54.4961 192.508 52.9727 191.969 51.2383C191.43 49.4805 191.16 47.6055 191.16 45.6133C191.16 43.8789 191.359 42.3086 191.758 40.9023C192.156 39.4727 192.66 38.207 193.27 37.1055C193.879 35.9805 194.559 35.0078 195.309 34.1875C196.059 33.3438 196.797 32.6523 197.523 32.1133C198.25 31.5742 198.906 31.1758 199.492 30.918C200.102 30.6367 200.559 30.4961 200.863 30.4961L201.32 31.7266C200.359 32.4297 199.504 33.4141 198.754 34.6797C198.098 35.7578 197.5 37.1875 196.961 38.9688C196.445 40.75 196.188 42.9648 196.188 45.6133C196.188 47.2305 196.34 48.8008 196.645 50.3242C196.949 51.8477 197.395 53.1953 197.98 54.3672C198.566 55.5391 199.281 56.4766 200.125 57.1797C200.992 57.8828 201.965 58.2344 203.043 58.2344C204.52 58.2344 205.738 57.6484 206.699 56.4766C207.684 55.2812 208.41 53.6523 208.879 51.5898C207.66 51.332 206.5 50.8516 205.398 50.1484C204.297 49.4453 203.324 48.5781 202.48 47.5469C201.637 46.4922 200.957 45.2852 200.441 43.9258C199.949 42.5664 199.703 41.0898 199.703 39.4961C199.703 38.1836 199.867 37.0352 200.195 36.0508C200.547 35.043 201.004 34.2109 201.566 33.5547C202.129 32.875 202.773 32.3711 203.5 32.043C204.25 31.6914 205.035 31.5156 205.855 31.5156C206.816 31.5156 207.801 31.7969 208.809 32.3594C209.816 32.8984 210.73 33.7188 211.551 34.8203C212.371 35.8984 213.039 37.2578 213.555 38.8984C214.07 40.5391 214.328 42.4492 214.328 44.6289C214.328 45.4492 214.281 46.2578 214.188 47.0547C214.094 47.8516 213.953 48.625 213.766 49.375C214.891 49.0469 215.91 48.5195 216.824 47.793C217.762 47.0664 218.535 46.1055 219.145 44.9102L219.531 44.1719L220.973 45.2617ZM202.023 39.2148C202.023 40.5977 202.211 41.875 202.586 43.0469C202.984 44.1953 203.512 45.2148 204.168 46.1055C204.824 46.9727 205.586 47.6992 206.453 48.2852C207.32 48.8711 208.246 49.2812 209.23 49.5156C209.348 48.8594 209.418 48.1797 209.441 47.4766C209.488 46.75 209.512 46.0117 209.512 45.2617C209.512 43.5977 209.383 42.0977 209.125 40.7617C208.867 39.4023 208.527 38.2539 208.105 37.3164C207.684 36.3555 207.191 35.6172 206.629 35.1016C206.066 34.5859 205.492 34.3281 204.906 34.3281C204.109 34.3281 203.43 34.7617 202.867 35.6289C202.305 36.4727 202.023 37.668 202.023 39.2148Z" stroke="#E1C06A" stroke-width="2" mask="url(#path-1-outside-1)"/>
<path d="M241.539 33.3086C241.539 37.5273 242.02 41.207 242.98 44.3477C243.941 47.4883 245.207 50.1016 246.777 52.1875C248.371 54.2734 250.176 55.8438 252.191 56.8984C254.23 57.9297 256.316 58.4453 258.449 58.4453C259.973 58.4453 261.473 58.1641 262.949 57.6016C264.449 57.0391 265.902 56.1953 267.309 55.0703C268.715 53.9453 270.062 52.5391 271.352 50.8516C272.664 49.1641 273.883 47.1836 275.008 44.9102L275.395 44.1719L276.836 45.2617L276.449 46C275.16 48.6016 273.73 50.8867 272.16 52.8555C270.613 54.8242 268.961 56.4766 267.203 57.8125C265.445 59.125 263.617 60.1211 261.719 60.8008C259.844 61.4805 257.922 61.8203 255.953 61.8203C254.266 61.8203 252.59 61.5742 250.926 61.082C249.285 60.6133 247.715 59.8984 246.215 58.9375C244.738 57.9531 243.355 56.7227 242.066 55.2461C240.801 53.7695 239.699 52.0469 238.762 50.0781C237.824 48.0859 237.086 45.8477 236.547 43.3633C236.031 40.8555 235.773 38.1016 235.773 35.1016C235.773 31.1406 236.102 27.5547 236.758 24.3438C237.438 21.1094 238.34 18.2383 239.465 15.7305C240.613 13.1992 241.938 11.0078 243.438 9.15625C244.961 7.30469 246.555 5.78125 248.219 4.58594C249.883 3.36719 251.582 2.46484 253.316 1.87891C255.051 1.29297 256.715 1 258.309 1C260.395 1 262.316 1.36328 264.074 2.08984C265.832 2.79297 267.344 3.80078 268.609 5.11328C269.875 6.40234 270.859 7.98438 271.562 9.85938C272.289 11.7109 272.652 13.7734 272.652 16.0469C272.652 18.2266 272.312 20.2773 271.633 22.1992C270.977 24.1211 270.086 25.8086 268.961 27.2617C267.859 28.6914 266.582 29.8281 265.129 30.6719C263.699 31.5156 262.199 31.9375 260.629 31.9375C259.574 31.9375 258.59 31.75 257.676 31.375C256.762 31 255.965 30.4727 255.285 29.793C254.605 29.1133 254.066 28.2812 253.668 27.2969C253.27 26.3125 253.07 25.2227 253.07 24.0273C253.07 22.8789 253.246 21.7773 253.598 20.7227C253.949 19.6445 254.395 18.6602 254.934 17.7695C255.473 16.8555 256.059 16.0586 256.691 15.3789C257.348 14.6758 257.98 14.125 258.59 13.7266L259.539 14.6758C259.047 15.2383 258.578 15.8477 258.133 16.5039C257.711 17.1367 257.336 17.8281 257.008 18.5781C256.68 19.3047 256.422 20.0898 256.234 20.9336C256.047 21.7773 255.953 22.6914 255.953 23.6758C255.953 24.6836 256.07 25.5859 256.305 26.3828C256.562 27.1797 256.902 27.8594 257.324 28.4219C257.77 28.9844 258.273 29.418 258.836 29.7227C259.398 30.0039 259.996 30.1445 260.629 30.1445C261.496 30.1445 262.363 29.8281 263.23 29.1953C264.098 28.5391 264.871 27.5898 265.551 26.3477C266.23 25.082 266.781 23.5352 267.203 21.707C267.625 19.8789 267.836 17.7695 267.836 15.3789C267.836 13.2227 267.59 11.3594 267.098 9.78906C266.629 8.19531 265.973 6.88281 265.129 5.85156C264.285 4.82031 263.289 4.05859 262.141 3.56641C260.992 3.05078 259.762 2.79297 258.449 2.79297C257.512 2.79297 256.445 3.00391 255.25 3.42578C254.055 3.82422 252.824 4.49219 251.559 5.42969C250.316 6.36719 249.098 7.60938 247.902 9.15625C246.707 10.6797 245.629 12.5781 244.668 14.8516C243.73 17.1016 242.969 19.75 242.383 22.7969C241.82 25.8438 241.539 29.3477 241.539 33.3086Z" stroke="#E1C06A" stroke-width="2" mask="url(#path-1-outside-1)"/>
<path d="M285.766 56.0547C286.586 56.0547 287.418 55.8438 288.262 55.4219C289.129 55 289.996 54.3438 290.863 53.4531C291.754 52.5625 292.668 51.4141 293.605 50.0078C294.543 48.5781 295.504 46.8789 296.488 44.9102L296.84 44.1719L298.281 45.2617L297.93 46C296.664 48.5078 295.398 50.6523 294.133 52.4336C292.891 54.2148 291.66 55.668 290.441 56.793C289.246 57.918 288.062 58.7383 286.891 59.2539C285.719 59.7695 284.594 60.0273 283.516 60.0273C281.992 60.0273 280.633 59.7109 279.438 59.0781C278.242 58.4453 277.234 57.5898 276.414 56.5117C275.594 55.4102 274.973 54.1445 274.551 52.7148C274.105 51.2617 273.883 49.7383 273.883 48.1445C273.883 45.6133 274.234 43.3164 274.938 41.2539C275.617 39.168 276.531 37.3867 277.68 35.9102C278.852 34.4336 280.176 33.2852 281.652 32.4648C283.129 31.6445 284.664 31.2344 286.258 31.2344C287.875 31.2344 289.105 31.6445 289.949 32.4648C290.816 33.2852 291.25 34.3164 291.25 35.5586C291.25 36.7539 290.91 37.8789 290.23 38.9336C289.551 39.9648 288.625 40.9844 287.453 41.9922C286.305 42.9766 284.969 43.9609 283.445 44.9453C281.922 45.9062 280.316 46.9023 278.629 47.9336C278.793 49.1523 279.074 50.2656 279.473 51.2734C279.871 52.2578 280.375 53.1133 280.984 53.8398C281.594 54.543 282.297 55.0938 283.094 55.4922C283.891 55.8672 284.781 56.0547 285.766 56.0547ZM286.855 36.6133C286.855 35.6758 286.598 34.9375 286.082 34.3984C285.59 33.8594 284.98 33.5898 284.254 33.5898C283.645 33.5898 283 33.8125 282.32 34.2578C281.641 34.6797 281.02 35.3711 280.457 36.332C279.895 37.2695 279.426 38.4766 279.051 39.9531C278.676 41.4297 278.488 43.2227 278.488 45.332V46.1406C279.285 45.7188 280.164 45.168 281.125 44.4883C282.109 43.7852 283.023 43.0117 283.867 42.168C284.711 41.3242 285.414 40.4336 285.977 39.4961C286.562 38.5352 286.855 37.5742 286.855 36.6133ZM280.07 25.8906L286.855 18.8594L290.512 22.4453L281.02 27.4023L280.07 25.8906Z" stroke="#E1C06A" stroke-width="2" mask="url(#path-1-outside-1)"/>
<path d="M311.113 52.3984C310.996 52.5859 310.82 52.9141 310.586 53.3828C310.375 53.8281 310.094 54.332 309.742 54.8945C309.414 55.457 309.016 56.043 308.547 56.6523C308.102 57.2617 307.586 57.8125 307 58.3047C306.414 58.7969 305.758 59.207 305.031 59.5352C304.328 59.8633 303.543 60.0273 302.676 60.0273C301.996 60.0273 301.293 59.8867 300.566 59.6055C299.84 59.3242 299.16 58.8086 298.527 58.0586C297.918 57.3086 297.414 56.2891 297.016 55C296.617 53.6875 296.418 52 296.418 49.9375C296.418 47.9688 296.488 46 296.629 44.0312C296.77 42.0391 296.934 40.2227 297.121 38.582C297.332 36.9414 297.531 35.5703 297.719 34.4688C297.906 33.3672 298.047 32.6992 298.141 32.4648C298.234 32.2539 298.422 32.0664 298.703 31.9023C298.984 31.7383 299.301 31.6094 299.652 31.5156C300.027 31.4219 300.402 31.3516 300.777 31.3047C301.176 31.2578 301.516 31.2344 301.797 31.2344C302.172 31.2344 302.465 31.3281 302.676 31.5156C302.91 31.7031 303.027 32.0195 303.027 32.4648C303.027 32.6758 302.98 33.0977 302.887 33.7305C302.816 34.3398 302.723 35.0898 302.605 35.9805C302.488 36.8711 302.359 37.8555 302.219 38.9336C302.102 40.0117 301.984 41.1133 301.867 42.2383C301.75 43.3398 301.645 44.4414 301.551 45.543C301.48 46.6211 301.445 47.6055 301.445 48.4961C301.445 51.0508 301.715 52.9492 302.254 54.1914C302.816 55.4336 303.73 56.0547 304.996 56.0547C306.074 56.0547 307.164 55.2695 308.266 53.6992C309.391 52.1289 310.363 49.8438 311.184 46.8438C311.301 45.5781 311.406 44.2305 311.5 42.8008C311.617 41.3477 311.723 39.9766 311.816 38.6875C311.91 37.375 311.992 36.2031 312.062 35.1719C312.156 34.1406 312.238 33.4023 312.309 32.957C312.379 32.6289 312.566 32.3594 312.871 32.1484C313.176 31.9141 313.516 31.7383 313.891 31.6211C314.289 31.4805 314.664 31.3867 315.016 31.3398C315.391 31.2695 315.672 31.2344 315.859 31.2344C316.258 31.2344 316.527 31.3281 316.668 31.5156C316.832 31.6797 316.914 31.9492 316.914 32.3242C316.914 32.6523 316.879 33.2852 316.809 34.2227C316.762 35.1367 316.691 36.2148 316.598 37.457C316.527 38.6758 316.445 39.9883 316.352 41.3945C316.258 42.8008 316.164 44.1602 316.07 45.4727C316 46.7617 315.93 47.9336 315.859 48.9883C315.812 50.043 315.789 50.8398 315.789 51.3789C315.789 52.9727 315.871 54.2266 316.035 55.1406C316.223 56.0547 316.621 56.5117 317.23 56.5117C317.676 56.5117 318.156 56.2305 318.672 55.668C319.211 55.082 319.785 54.2734 320.395 53.2422C321.027 52.2109 321.707 50.9922 322.434 49.5859C323.16 48.1562 323.945 46.5977 324.789 44.9102L325.141 44.1719L326.582 45.2617L326.23 46C325.105 48.2266 324.109 50.2188 323.242 51.9766C322.398 53.7109 321.59 55.1758 320.816 56.3711C320.043 57.5664 319.258 58.4805 318.461 59.1133C317.664 59.7227 316.773 60.0273 315.789 60.0273C314.875 60.0273 314.113 59.8516 313.504 59.5C312.918 59.1484 312.449 58.6445 312.098 57.9883C311.746 57.332 311.488 56.5352 311.324 55.5977C311.184 54.6602 311.113 53.5938 311.113 52.3984Z" stroke="#E1C06A" stroke-width="2" mask="url(#path-1-outside-1)"/>
</svg>
